<svg xmlns="http://www.w3.org/2000/svg" xmlns:xlink="http://www.w3.org/1999/xlink" version="1.1" width="841pt" height="249pt" viewBox="0 0 841 249">
<defs>
<clipPath id="clip_0">
<path transform="matrix(1,0,0,-1,0,249)" d="M0 0H841V249H0Z"/>
</clipPath>
<path id="font_1_6738" d="M.12599182 .80999758 .07398987 .73298647C.1289978 .71499636 .18299866 .68899539 .23498535 .6559906L.29100038 .73999026C.24099732 .7679901 .18598938 .79100039 .12599182 .80999758M.42399598 .82598879C.4019928 .7579956 .36099244 .70199587 .29899598 .6559906L.36099244 .57499697C.3959961 .6029968 .4269867 .6339874 .45298768 .66799929H.5529938C.5399933 .625 .5179901 .58999636 .48799134 .5629883 .44699098 .5289917 .37998963 .5019989 .2869873 .48298646L.32598878 .3899994C.44099427 .4169922 .5219879 .45399476 .56799319 .5019989 .57699587 .5119934 .58599856 .522995 .59599307 .5349884 .6589966 .46299745 .7599945 .41299439 .8999939 .38398744L.93699648 .47499085C.79100039 .5009918 .69200137 .548996 .6389923 .61698916 .6439972 .6329956 .6489868 .6499939 .6529999 .66799929H.7879944C.7779999 .6359863 .7659912 .6069946 .7519989 .58200076L.85198977 .5519867C.8699951 .59999087 .8839874 .6489868 .894989 .69699099V.7589874H.5059967C.5139923 .776001 .5209961 .7939911 .5269928 .8129883L.42399598 .82598879M.82899478 .3789978H.16899109V.067993167H.272995V.28199769H.723999V.07998657H.82899478V.3789978M.45399476 .25898744C.44699098 .16499329 .42199708 .09799194 .37799073 .05899048 .32798768 .019989014 .22499085-.0030059815 .068984989-.010009766L.11099243-.10501099C.2999878-.08900452 .4189911-.055007936 .46798707-.0020141602 .5139923 .037994386 .54499819 .12298584 .5589905 .25099183L.45399476 .25898744M.24798584 .61698916C.19599915 .57099917 .1309967 .5269928 .053985597 .4869995L.12199402 .4059906C.19599915 .44999696 .2579956 .49598695 .30799867 .54599L.24798584 .61698916M.57598879 .08799744 .522995 .008987427C.6429901-.020004273 .7589874-.06100464 .8730011-.11300659L.92900088-.026000977C.82299807 .018997193 .7049866 .056991579 .57598879 .08799744Z"/>
<path id="font_1_1342" d="M.5169983 .83299258 .40699769 .8149872C.42199708 .78900149 .43598939 .7599945 .44898988 .7279968H.101989749V.6289978H.27799989L.31098939 .5069885H.10998535V.27598573C.10798645 .14498902 .08099365 .042999269 .02999878-.03100586L.10899353-.102005008C.1769867-.007003784 .21199036 .11898804 .21598816 .27598573V.4059906H.9219971V.5069885H.69599917C.71199038 .5469971 .72499087 .58699038 .7350006 .6289978H.901001V.7279968H.55599978C.5439911 .7669983 .5309906 .8019867 .5169983 .83299258M.4139862 .5069885 .3809967 .6289978H.6349945C.625 .58699038 .6119995 .5469971 .59498599 .5069885H.4139862Z"/>
<path id="font_1_1502" d="M.13798523 .4099884V-.10600281H.24099732V.57199099C.2769928 .6399994 .30599977 .71099856 .32798768 .7859955L.22999573 .83200076C.18598938 .6779938 .117996219 .5439911 .027999878 .42999269L.06298828 .31799317C.08898926 .34799195 .11399841 .37799073 .13798523 .4099884M.30499269 .7049866V.6069946H.96398928V.7049866H.69499209C.68499758 .7409973 .66999819 .7809906 .6499939 .82398989L.5499878 .7969971C.5649872 .7669983 .57899478 .7369995 .59199526 .7049866H.30499269M.394989 .55400088V.46099855H.8799896V.55400088H.394989M.394989 .41299439V.31900025H.8799896V.41299439H.394989M.9019928 .2639923H.37199403V-.104003909H.47399903V-.054000856H.8009949V-.104003909H.9019928V.2639923M.47399903 .04499817V.16699219H.8009949V.04499817H.47399903Z"/>
<path id="font_1_3059" d="M.18099976 .7559967V.24499512H.82699587V.7559967H.5149994C.5249939 .7749939 .5329895 .79499819 .5389862 .81599429L.42900086 .83099368C.4229889 .8049927 .4139862 .7799988 .4019928 .7559967H.18099976M.7259979 .33299256H.28199769V.3909912H.7259979V.33299256M.28199769 .47299195V.5289917H.7259979V.47299195H.28199769M.28199769 .61099246V.6669922H.7259979V.61099246H.28199769M.12599182 .18998719C.10998535 .117996219 .08099365 .04899597 .039993287-.015014648L.12799073-.072006229C.16899109-.0040130617 .20098877 .07699585 .22399903 .16999817L.12599182 .18998719M.6309967-.08900452C.67099-.08900452 .70098879-.08100891 .72099307-.06600952 .74198916-.05000305 .7569885 .0009918213 .7659912 .08699036L.66600039 .11999512C.6629944 .06399536 .6569977 .02999878 .6469879 .018997193 .6389923 .008987427 .6269989 .0029907227 .61099246 .0029907227H.40699769C.3869934 .0029907227 .37799073 .01399231 .37799073 .033996583V.19099427H.27198792V.010986328C.27198792-.055007936 .30699159-.08900452 .3769989-.08900452H.6309967M.5119934 .23199463 .43499757 .18399048C.47999574 .13398743 .5159912 .08799744 .5419922 .04798889L.62098696 .101989749C.59498599 .13899231 .55799868 .18199158 .5119934 .23199463M.8299866 .21199036 .7480011 .16099549C.80400088 .08299255 .84799197 .0129852299 .8799896-.05000305L.96398928 .0079956059C.9319916 .06599426 .8880005 .13398743 .8299866 .21199036Z"/>
<path id="font_1_1870" d="M.09700012 .49499513H.33999635C.27198792 .2899933 .17098999 .12799073 .035995485 .0079956059L.09098816-.08900452C.19799805-.0020141602 .2869873 .11399841 .35798646 .2579956 .3899994 .20298767 .43598939 .15098572 .49699403 .100997928 .42900086 .05999756 .34599305 .021987915 .24899292-.013000488L.3039856-.11100769C.41600038-.06700134 .5109863-.018005372 .58898928 .035995485 .66999819-.015014648 .769989-.06201172 .8889923-.10600281L.94299319-.007003784C.83999636 .026992798 .7509918 .06399536 .6759949 .10499573 .746994 .17098999 .79499819 .24299622 .81900027 .32099916V.40899659H.4229889C.43199159 .43699647 .44099427 .46499635 .45098878 .49499513H.9319916V.59399417H.47698976C.49398805 .6619873 .5079956 .73399356 .519989 .8109894L.41299439 .82398989C.4019928 .74398806 .3869934 .6669922 .36898805 .59399417H.23098755L.2809906 .7749939 .1769867 .7919922 .09700012 .49499513M.43399049 .31498719H.71299746C.6859894 .26098634 .6429901 .20899964 .58399966 .16099549 .5169983 .20899964 .46699525 .2599945 .43399049 .31498719M.6879883 .82499697 .61698916 .7569885C.69099429 .70098879 .746994 .6469879 .7859955 .59599307L.8600006 .67099C.81399539 .72299197 .7559967 .7739868 .6879883 .82499697Z"/>
<path id="font_1_2802" d="M.5149994 .55400088V.44099427H.32099916C.36099244 .49198915 .39698792 .54599 .42900086 .60198977H.94400027V.70399478H.47999574C.49398805 .73999026 .5079956 .776001 .519989 .81399539L.4139862 .82699587C.3999939 .7849884 .38398744 .74398806 .3639984 .70399478H.06498718V.60198977H.30599977C.23699951 .49598695 .14498902 .40098573 .0309906 .31698609L.09899902 .22799683C.14898682 .2669983 .19599915 .30799867 .23899842 .34999085V-.01600647H.33898927V.34498597H.5149994V-.104003909H.6159973V.34498597H.78900149V.12298584C.78900149 .09799194 .7749939 .084991458 .7480011 .084991458L.66600039 .08898926 .69099429-.007003784H.7799988C.85198977-.007003784 .8889923 .0289917 .8889923 .100997928V.44099427H.6159973V.55400088H.5149994Z"/>
<path id="font_1_2605" d="M.25898744 .2679901H.45098878V.18399048H.25898744V.2679901M.45098878 .08898926V-.10800171H.5549927V.08898926H.75V.039993287H.85198977V.54100039H.5549927V.6230011H.45098878V.54100039H.15699768V.036987306H.25898744V.08898926H.45098878M.5549927 .18399048V.2679901H.75V.18399048H.5549927M.75 .35899354H.5549927V.44499208H.75V.35899354M.45098878 .44499208V.35899354H.25898744V.44499208H.45098878M.9279938 .7559967H.5479889C.5399933 .7839966 .5319977 .8089905 .5239868 .83099368L.41299439 .8129883C.42199708 .79499819 .43099977 .776001 .43899537 .7559967H.067993167V.5569916H.16999817V.6609955H.82598879V.56199648H.9279938V.7559967Z"/>
<path id="font_1_3792" d="M.2769928 .36698915C.29899598 .33099366 .32398988 .28599549 .35398866 .23298645L.41299439 .32299806C.36698915 .3829956 .32099916 .43798829 .2769928 .48599244V.5369873H.38398744V.6359863H.2769928V.81999209H.17599488V.6359863H.04899597V.5369873H.17199707C.14199829 .42099 .09498596 .31698609 .0309906 .22698975L.07499695 .11898804C.114990238 .18699646 .147995 .2599945 .17599488 .33898927V-.104003909H.2769928V.36698915M.3999939 .7220001V.6269989H.56900027C.5149994 .5349884 .46998597 .47698976 .43499757 .45498658 .43099977 .45199586 .4249878 .44898988 .41600038 .44599916L.43699647 .3619995 .6309967 .37098695C.55599978 .29499818 .46499635 .23899842 .35798646 .20199585L.4149933 .115997318C.60798647 .18798828 .7539978 .32299806 .85398867 .5219879L.769989 .5669861C.75 .5289917 .72898867 .49299623 .7049866 .45899964 .6549988 .45498658 .60398867 .45098878 .5529938 .44799806 .58898928 .48799134 .6299896 .5469971 .6759949 .6269989H.94999697V.7220001H.73399356C.7220001 .7589874 .70999148 .79299929 .69699099 .82299807L.58999636 .8049927C.6049957 .7799988 .61898806 .7519989 .6319885 .7220001H.3999939M.72499087 .083999637C.79299929 .017990113 .84599307-.044006349 .8860016-.104003909L.96199038-.028015137C.91400149 .02999878 .85598757 .08898926 .7899933 .14698792 .84999087 .21199036 .9029999 .28799439 .94898989 .37399293L.8619995 .4189911C.7480011 .20498657 .57499697 .05999756 .34399415-.015014648L.4019928-.104003909C.5239868-.06100464 .6319885 .0019989014 .72499087 .083999637Z"/>
<path id="font_1_5301" d="M.1619873 .5339966V.44400025H.44799806V.37599183H.050994874V.28599549H.6629944V.21499634H.10998535V.12399292H.6629944V.019989014C.6629944-.0020141602 .6489868-.013000488 .621994-.013000488 .58200076-.013000488 .5399933-.010009766 .49499513-.006011963L.5179901-.104003909H.6569977C.7299957-.104003909 .7669983-.071014408 .7669983-.005004883V.12399292H.9049988V.21499634H.7669983V.28599549H.94799807V.37599183H.5519867V.44400025H.83399966V.5339966H.5519867V.58099368H.44799806V.5339966H.1619873M.29699708 .11399841 .21299744 .06098938C.2630005 .010986328 .3019867-.03401184 .33099366-.07600403L.41299439-.019012452C.3849945 .018997193 .34700013 .06399536 .29699708 .11399841M.21699524 .66999819H.22799683C.25299073 .6339874 .2749939 .5970001 .2939911 .55799868L.3880005 .59298709C.37399293 .61698916 .35699464 .6429901 .33699037 .66999819H.48599244V.7569885H.2539978C.2599945 .772995 .2649994 .78900149 .2709961 .8069916L.17199707 .82899478C.147995 .7509918 .10798645 .6759949 .049987794 .60598757L.14099121 .548996C.16899109 .58499148 .19499207 .6259918 .21699524 .66999819M.621994 .6729889H.6619873C.6879883 .6369934 .70999148 .598999 .7299957 .5589905L.82099917 .59399417C.80799868 .61898806 .79100039 .644989 .7709961 .6729889H.9229889V.7599945H.6569977C.6619873 .776001 .6669922 .7919922 .6719971 .8089905L.57398989 .8299866C.5569916 .7630005 .5269928 .69999697 .48399354 .6399994L.57099917 .58699038C.58898928 .61299136 .60598757 .6419983 .621994 .6729889Z"/>
<path id="font_1_2951" d="M.23098755 .82899478C.18798828 .73599246 .12199402 .6549988 .032989503 .58699038L.06399536 .4869995C.18598938 .57699587 .2709961 .6759949 .32099916 .7859955L.23098755 .82899478M.2669983 .59799197C.21699524 .48799134 .14199829 .3919983 .041992189 .31098939L.07299805 .21199036C.10699463 .23899842 .13999939 .2669983 .17098999 .29599V-.0980072H.27198792V.41099549C.30599977 .45700074 .33399964 .5059967 .35598756 .55599978L.2669983 .59799197M.6049957 .82299807V.72499087H.3939972V.6299896H.6049957V.5349884H.35798646V.43899537H.95999148V.5349884H.70599368V.6299896H.9189911V.72499087H.70599368V.82299807H.6049957M.36099244 .34700013V.25H.7369995V.04798889C.7369995 .015991211 .7220001-.0010070801 .69200137-.0010070801 .6519928-.0010070801 .60899356 .0009918213 .5629883 .004989624L.58699038-.0940094H.72898867C.8029938-.0940094 .84098818-.055007936 .84098818 .021987915V.25H.94599917V.34700013H.84098818V.4099884H.7369995V.34700013H.36099244M.49598695 .22999573 .4149933 .1789856C.46699525 .12399292 .5089874 .07398987 .5399933 .0289917L.62098696 .085998538C.59199526 .12799073 .5499878 .17599488 .49598695 .22999573Z"/>
<path id="font_1_5647" d="M.1329956 .7279968V.6309967H.4039917V.5419922H.052993776V.44400025H.46499635C.33099366 .37199403 .18798828 .31799317 .036987306 .2829895L.08099365 .18598938C.1329956 .20498657 .18299866 .22299195 .23098755 .24099732V-.10700989H.33699037V-.071014408H.72698977V-.10700989H.83200076V.36099244H.5089874C.5509949 .3829956 .58898928 .40299989 .6230011 .4229889L.6559906 .44400025H.95199587V.5419922H.7849884C.83898928 .58999636 .8909912 .6429901 .93899539 .70199587L.8600006 .7599945C.79499819 .6799927 .71598818 .60798647 .6239929 .5419922H.5099945V.6309967H.72499087V.7279968H.5099945V.82299807H.4039917V.7279968H.1329956M.33699037 .102996829H.72698977V.020996094H.33699037V.102996829M.72698977 .19299317H.33699037V.2709961H.72698977V.19299317Z"/>
<path id="font_1_5087" d="M.54299929 .31698609H.6380005V.21499634H.54299929V.31698609M.5359955 .12599182H.6380005V-.086013797H.73298647V.12599182H.83399966V.017990113C.83399966 .0039978029 .82699587-.0040130617 .8129883-.0040130617 .79299929-.0040130617 .7719879-.0020141602 .75 .0009918213L.7749939-.09300232H.84199526C.901001-.09300232 .93099978-.06700134 .93099978-.01600647V.59298709H.7809906C.80599978 .61898806 .83099368 .6489868 .85598757 .68299868V.7559967H.625C.6329956 .769989 .6399994 .7839966 .647995 .7999878L.5469971 .82299807C.49299623 .71699526 .42999269 .6349945 .35798646 .57699587L.42199708 .5C.42999269 .5069885 .43899537 .5139923 .44699098 .5219879V.21798706C.44499208 .115997318 .42199708 .03199768 .3769989-.03401184L.45298768-.102005008C.49598695-.040008546 .5239868 .035995485 .5359955 .12599182M.6689911 .59298709H.5159912C.5349884 .61698916 .55400088 .6419983 .57299807 .6689911H.73399356C.71199038 .6409912 .69099429 .61499026 .6689911 .59298709M.83399966 .21499634H.73298647V.31698609H.83399966V.21499634M.83399966 .40699769H.73298647V.5019989H.83399966V.40699769M.6380005 .5019989V.40699769H.54299929V.5019989H.6380005M.06199646 .776001V.6759949H.16099549C.13798523 .54499819 .09399414 .42599488 .0289917 .31999208L.08898926 .22299195C.100997928 .24099732 .11199951 .25898744 .12399292 .27799989V-.071014408H.22200012V-.006011963H.38598634V.47898866H.21499634C.23498535 .54100039 .25099183 .60598757 .2630005 .6759949H.40499879V.776001H.06199646M.22200012 .08898926V.3829956H.2919922V.08898926H.22200012Z"/>
<path id="font_1_6538" d="M.61099246 .81399539C.6100006 .621994 .59599307 .46699525 .56900027 .34700013 .5349884 .20498657 .46099855 .084991458 .34700013-.013000488L.41799928-.1000061C.5519867 .0129852299 .6369934 .15499878 .6719971 .32598878 .673996 .33399964 .6749878 .34298707 .6769867 .35198976 .73098757 .1769867 .8049927 .026992798 .8999939-.09701538L.9759979-.010009766C.84799197 .1349945 .7579956 .32899476 .70799258 .57199099 .71398928 .6459961 .71699526 .72698977 .71699526 .81399539H.61099246M.17799378 .8149872 .10398865 .7429962C.1749878 .69099429 .22999573 .6419983 .2679901 .59599307L.33999635 .6689911C.29499818 .71699526 .24099732 .7659912 .17799378 .8149872M.038986207 .526001V.42599488H.17599488V.08099365C.17599488 .05899048 .16699219 .039993287 .14898682 .025985718L.18899536-.06700134C.2630005-.019012452 .33198548 .033996583 .39698792 .09399414L.36898805 .20098877C.33699037 .16999817 .30599977 .14199829 .2769928 .117996219V.526001H.038986207Z"/>
<path id="font_1_1868" d="M.14099121 .60398867 .06599426 .5309906C.1349945 .45199586 .19699097 .375 .2519989 .30099488 .20098877 .18798828 .12998963 .09098816 .038986207 .008987427L.10998535-.07400513C.19799805 .0039978029 .2689972 .09498596 .32299806 .19898987 .35398866 .15299988 .38198854 .10699463 .40699769 .06098938L.48799134 .14199829C.45298768 .19999695 .4149933 .25698854 .37298585 .31399537 .4149933 .42799378 .43899537 .55400088 .44599916 .69400027V.772995H.066986087V.6719971H.34399415C.33599855 .58200076 .31999208 .49699403 .29599 .41799928 .24798584 .47999574 .19599915 .5419922 .14099121 .60398867M.4889984 .772995V.6719971H.5169983C.526001 .526001 .56799319 .38198854 .6419983 .24198914 .58200076 .15499878 .5059967 .07199097 .41600038-.007003784L.48799134-.0940094C.56799319-.01600647 .6380005 .06399536 .69799807 .1459961 .75 .06599426 .8129883-.014007568 .8889923-.09300232L.96299746-.006011963C.8819885 .07398987 .8149872 .1559906 .7609863 .24099732 .8450012 .3809967 .8959961 .5279999 .91600039 .6799927V.772995H.4889984M.61099246 .6719971H.81900027C.798996 .55599978 .7609863 .44599916 .70399478 .34199525 .6499939 .44799806 .61898806 .55799868 .61099246 .6719971Z"/>
<path id="font_1_3548" d="M.054992677 .6839905V.58299258H.32699586C.32598878 .5519867 .32398988 .5119934 .32199098 .46199037 .31698609 .36799623 .2979889 .2829895 .2649994 .20799256 .23098755 .1329956 .16099549 .050994874 .054992677-.037002565L.1309967-.11100769C.21998596-.039001466 .2889862 .040985109 .33799745 .12799073 .37298585 .19099427 .39698792 .2599945 .41099549 .33599855H.72898867C.72698977 .19799805 .723999 .11399841 .71798709 .08299255 .70599368 .026992798 .68099978-.0020141602 .6419983-.0040130617 .6049957-.0040130617 .55999758-.0020141602 .5069885 .0009918213L.5379944-.0940094C.58200076-.09701538 .6199951-.09901428 .6529999-.09901428 .73098757-.09701538 .7819977-.058013917 .8049927 .019989014 .82099917 .07398987 .83099368 .21299744 .83499148 .43499757H.4229889C.4269867 .49598695 .42900086 .54499819 .43099977 .58299258H.94898989V.6839905H.5799866C.55799868 .7389984 .5329895 .7869873 .5069885 .82699587L.4079895 .7899933C.43299867 .7559967 .45399476 .72099307 .47200013 .6839905H.054992677Z"/>
<path id="font_1_1339" d="M.053985597 .71299746V.6139984H.94699099V.71299746H.5609894C.5439911 .7549896 .526001 .7939911 .5079956 .82899478L.3909912 .8089905C.41099549 .7789917 .42900086 .746994 .44499208 .71299746H.053985597M.66799929 .60798647 .5970001 .5399933C.71499636 .44499208 .8069916 .35699464 .87098696 .2749939L.94799807 .35299684C.871994 .43798829 .7779999 .522995 .66799929 .60798647M.6529999 .4189911C.61299136 .34298707 .56199648 .27598573 .5 .21699524 .43499757 .27398683 .3829956 .33898927 .34298707 .41299439L.25299073 .3619995C.29699708 .2829895 .35299684 .21199036 .4189911 .1499939 .31698609 .07798767 .19198609 .022994996 .04399109-.013000488L.10899353-.10900879C.2630005-.069000247 .3939972-.007003784 .5039978 .07899475 .61099246-.0010070801 .74198916-.06300354 .8959961-.10600281L.96099856-.008010864C.8129883 .0289917 .68699648 .08198547 .58499148 .15098572 .6489868 .21499634 .70399478 .2899933 .7489929 .37599183L.6529999 .4189911M.32499696 .6069946C.25099183 .5159912 .15899658 .43699647 .050994874 .36898805L.117996219 .2809906C.22999573 .35499574 .32499696 .44099427 .40098573 .54100039L.32499696 .6069946Z"/>
<path id="font_1_3379" d="M.5319977 .647995 .45799256 .6119995C.47599793 .58299258 .49398805 .5509949 .5099945 .5149994H.37298585V.41600038H.9399872V.5149994H.798996C.81900027 .5499878 .83699038 .58799746 .8529968 .6299896L.8029938 .647995H.9219971V.74198916H.7049866C.69499209 .7739868 .6859894 .80400088 .6759949 .8299866L.56799319 .81199648C.5799866 .7899933 .58999636 .7669983 .59999087 .74198916H.39698792V.647995H.5319977M.60899356 .5149994C.58898928 .5629883 .56799319 .6069946 .54499819 .647995H.7489929C.7319946 .60198977 .71199038 .5569916 .68899539 .5149994H.60899356M.1639862-.09500122C.23199463-.09500122 .2669983-.06100464 .2669983 .0069885256V.2829895C.2899933 .2939911 .31298829 .30499269 .33699037 .31698609V.4229889C.31399537 .41099549 .29100038 .39898683 .2669983 .3869934V.5399933H.33898927V.6409912H.2669983V.81799319H.16099549V.6409912H.049987794V.5399933H.16099549V.34298707C.117996219 .32699586 .07398987 .31498719 .0289917 .30499269L.055999757 .19999695C.09098816 .21199036 .12599182 .22399903 .16099549 .23699951V.033996583C.16099549 .011993408 .1499939 0 .12799073 0 .10398865 0 .07899475 .0019989014 .052993776 .005996704L.07598877-.09500122H.1639862M.55400088 .40499879C.54599 .38198854 .5359955 .35798646 .5239868 .33198548H.3600006V.23199463H.47399903C.45399476 .19799805 .43299867 .1619873 .40899659 .125 .47299195 .099990848 .5319977 .07499695 .58799746 .050994874 .5289917 .023986817 .44999696 .0019989014 .35198976-.01600647L.3919983-.11000061C.5309906-.08200073 .6339874-.04600525 .70098879 0 .7789917-.036010744 .84298709-.071014408 .894989-.103012088L.95199587-.020004273C.894989 .011993408 .83599856 .040985109 .7749939 .067993167 .8129883 .11399841 .83999636 .16799927 .8549957 .23199463H.95700076V.33198548H.6299896C.6380005 .35198976 .6469879 .37199403 .6549988 .3929901L.55400088 .40499879M.7569885 .23199463C.7409973 .18399048 .71499636 .14399719 .6799927 .10998535 .6329956 .12998963 .58499148 .14898682 .5369873 .1659851 .5509949 .18699646 .5649872 .20899964 .57899478 .23199463H.7569885Z"/>
<path id="font_1_6627" d="M.5 .60398867V.5219879H.598999V.45399476H.4869995V.36799623H.8109894V.45399476H.69799807V.5219879H.7979889V.60398867H.69799807V.67099H.598999V.60398867H.5M.5130005 .31900025V.04598999H.7839966V.31900025H.5130005M.69599917 .12998963H.60198977V.23498535H.69599917V.12998963M.93299868 .79100039H.36698915V.22299195C.36499024 .11898804 .34199525 .033996583 .2979889-.03401184L.375-.10501099C.43299867-.019012452 .46299745 .09199524 .46499635 .22999573V.69699099H.83399966V.040985109C.83399966 .0079956059 .82099917-.009002686 .79499819-.009002686 .7689972-.009002686 .73999026-.007003784 .70999148-.0040130617L.73399356-.09901428H.82499697C.8969879-.09901428 .93299868-.06401062 .93299868 .004989624V.79100039M.17799378 .81399539 .10499573 .7429962C.17098999 .69099429 .22299195 .6429901 .2599945 .5970001L.33099366 .6689911C.2889862 .71699526 .23799134 .7659912 .17799378 .81399539M.035995485 .526001V.42599488H.1659851V.08799744C.1659851 .066986087 .15699768 .049987794 .13899231 .035995485L.1789856-.057006837C.23699951-.015014648 .2919922 .03199768 .34399415 .083999637L.31799317 .18699646C.2999878 .16899109 .28199769 .1519928 .2659912 .13598633V.526001H.035995485Z"/>
<path id="font_1_3295" d="M.37098695 .5099945H.5369873C.522995 .44099427 .5069885 .37799073 .4869995 .32099916 .44099427 .19099427 .37298585 .07798767 .2829895-.01600647L.34999085-.1000061C.43798829 .0009918213 .5079956 .11399841 .5589905 .23799134 .58099368 .18399048 .6119995 .13398743 .6529999 .08699036 .60198977 .040985109 .5389862 .0029907227 .46299745-.027008057L.519989-.11601257C.59599307-.08200073 .6619873-.036010744 .7200012 .019989014 .772995-.026000977 .83799746-.06800842 .91600039-.10600281L.97099307-.01600647C.8959961 .015991211 .83299258 .051986696 .7819977 .09199524 .8299866 .1559906 .8679962 .22999573 .8969879 .31399537V.40299989H.6100006C.6179962 .43699647 .6259918 .47299195 .6339874 .5099945H.94599917V.60598757H.651001C.6619873 .673996 .67099 .746994 .67900088 .82299807H.57499697C.56999209 .746994 .5629883 .673996 .5529938 .60598757H.4850006C.49499513 .6519928 .5039978 .7049866 .5119934 .7649994L.41600038 .7749939C.4059906 .69898989 .3909912 .6100006 .37098695 .5099945M.71499636 .15499878C.6729889 .20098877 .6429901 .25299073 .6259918 .31098939H.79599C.7769928 .25299073 .75 .20098877 .71499636 .15499878M.16499329-.09300232C.23399353-.09300232 .2689972-.058013917 .2689972 .009994507V.27598573C.30299378 .2899933 .33799745 .30599977 .37199403 .32199098V.42599488C.33799745 .40899659 .3039856 .3929901 .2689972 .37799073V.5479889H.35299684V.6489868H.2689972V.81999209H.16499329V.6489868H.04499817V.5479889H.16499329V.33898927C.11999512 .32499696 .07398987 .31298829 .027999878 .30299378L.054992677 .19999695C.09199524 .21099854 .1289978 .22299195 .16499329 .23599243V.036987306C.16499329 .0129852299 .15299988 0 .1289978 0 .10499573 0 .07899475 .0019989014 .051986696 .005996704L.07499695-.09300232H.16499329M.80599978 .8299866 .72499087 .7789917C.7749939 .72299197 .81399539 .6719971 .84298709 .6259918L.923996 .6819916C.8959961 .723999 .8569946 .7739868 .80599978 .8299866Z"/>
<path id="font_1_2592" d="M.9319916 .7259979H.5529938C.54299929 .7609863 .5319977 .79299929 .5209961 .82199099L.4019928 .8019867C.4139862 .7789917 .4249878 .7539978 .43499757 .7259979H.06599426V.4850006H.17098999V.625H.82699587V.4850006H.9319916V.7259979M.21299744 .5369873V.43699647H.7829895V.5369873H.21299744M.06098938 .35198976V.25099183H.31999208C.31599427 .18199158 .29599 .12599182 .25898744 .08198547 .22200012 .041992189 .1499939 .008987427 .042999269-.018005372L.102996829-.11201477C.21299744-.08200073 .2919922-.039001466 .34098817 .01499939 .3909912 .07398987 .4189911 .15299988 .42399598 .25099183H.5669861V.03199768C.5669861-.05000305 .6029968-.09100342 .6749878-.09100342H.84999087C.8829956-.09100342 .9079895-.08100891 .923996-.06300354 .94200137-.044006349 .95399478 .016998291 .96099856 .11898804L.8619995 .1499939C.8600006 .08198547 .85598757 .040985109 .85198977 .027999878 .8470001 .01499939 .83999636 .0079956059 .8299866 .0079956059H.70700076C.68299868 .0079956059 .67099 .022994996 .67099 .052993776V.25099183H.9399872V.35198976H.06098938Z"/>
<path id="font_1_3182" d="M.7589874 .8299866 .69299319 .7669983C.7319946 .7369995 .7639923 .70700076 .78900149 .67900088H.647995C.6459961 .72499087 .644989 .772995 .644989 .82398989H.5389862C.5389862 .7739868 .5389862 .72499087 .54100039 .67900088H.1289978V.34599305C.12599182 .18399048 .09399414 .056991579 .03199768-.03401184L.11099243-.10501099C.18798828 .0079956059 .22898865 .15699768 .23399353 .34298707H.375C.37298585 .24099732 .36999513 .17799378 .3639984 .15499878 .35899354 .1349945 .34799195 .125 .33198548 .12399292 .3039856 .12399292 .2709961 .12599182 .23098755 .1289978L.2630005 .033996583C.29299928 .0309906 .31999208 .0289917 .34399415 .0289917 .397995 .02999878 .43299867 .050994874 .44898988 .09298706 .46598817 .13899231 .47599793 .25498963 .47898866 .44099427H.23399353V.5799866H.54599C.55400088 .45999146 .56799319 .35899354 .58999636 .2789917 .6009979 .23799134 .61299136 .19999695 .6269989 .16499329 .5609894 .084991458 .48098756 .023986817 .3869934-.018005372L.44699098-.10600281C.5329895-.06800842 .60899356-.013000488 .6749878 .05899048 .68699648 .036987306 .70098879 .016998291 .71499636-.0010070801 .7639923-.060012819 .80999758-.0900116 .85398867-.0900116 .9039917-.0900116 .94099429-.019012452 .96699526 .12199402L.8730011 .17298889C.8600006 .07699585 .84799197 .0289917 .83799746 .0289917 .82299807 .0289917 .8009949 .050994874 .772995 .09399414 .7630005 .10899353 .7529907 .1269989 .74398806 .14698792 .8049927 .23599243 .8549957 .34399415 .8939972 .47099305L.798996 .5119934C.772995 .42199708 .73999026 .34098817 .69999697 .2709961 .69599917 .2849884 .69200137 .2979889 .68899539 .31199647 .6729889 .37399293 .6609955 .46398927 .6529999 .5799866H.94699099V.67900088H.8279877L.8739929 .7259979C.84199526 .7609863 .80400088 .79599 .7589874 .8299866Z"/>
<path id="font_1_1745" d="M.17999268 .6199951V.17399597C.13198853 .1639862 .08299255 .15499878 .034988405 .14698792L.06199646 .040985109C.19198609 .068984989 .31399537 .10398865 .42900086 .14399719V.24899292C.3809967 .23098755 .33299256 .21499634 .2849884 .20098877V.6199951H.41799928V.72099307H.04699707V.6199951H.17999268M.58099368 .81900027V.6279907H.43399049V.526001H.58099368V.519989C.57899478 .2639923 .5079956 .07798767 .36898805-.038009645L.45498658-.11300659C.60598757 .020996094 .68299868 .23199463 .68699648 .519989V.526001H.83399966C.83200076 .2619934 .82899478 .10699463 .82299807 .06199646 .8149872 .021987915 .7829895 .0009918213 .72898867 .0009918213 .69999697 .0009918213 .6649933 .0029907227 .625 .005996704L.6499939-.0920105C.69599917-.09500122 .72898867-.09701538 .746994-.09701538 .84999087-.09701538 .9079895-.06100464 .92099 .010986328 .93099978 .08898926 .9359894 .29499818 .9359894 .6279907H.68699648V.81900027H.58099368Z"/>
<path id="font_1_5475" d="M.375 .11898804C.27999879 .084991458 .16899109 .056991579 .042999269 .036987306L.057998659-.073013309C.17599488-.05101013 .28199769-.022003174 .375 .0129852299V.11898804M.18798828 .8279877C.15499878 .72299197 .115997318 .6269989 .07199097 .5399933 .05999756 .5209961 .04499817 .5079956 .0289917 .5019989L.054992677 .40699769C.102996829 .4139862 .147995 .42099 .19198609 .4269867 .1519928 .34999085 .11898804 .29599 .09298706 .2649994 .07998657 .25299073 .06399536 .24398804 .04598999 .23599243L.07299805 .14199829C.1539917 .1539917 .23999024 .1769867 .33198548 .21299744V.30599977C.28599549 .2869873 .23899842 .2709961 .19299317 .25898744 .24499512 .33399964 .30899049 .45098878 .3849945 .61099246L.2939911 .6439972C.27398683 .59999087 .2559967 .55799868 .23799134 .519989L.1499939 .5079956C.19599915 .58200076 .24198914 .6759949 .28599549 .7899933L.18798828 .8279877M.5799866 .28799439 .5249939 .20698548C.6230011 .18299866 .71899417 .14898682 .8109894 .10598755L.8619995 .18598938C.776001 .22599793 .6819916 .2599945 .5799866 .28799439M.45899964 .13198853 .3999939 .04499817C.5519867 .0079956059 .69898989-.043014528 .84199526-.10700989L.897995-.020004273C.7659912 .039993287 .61898806 .08999634 .45899964 .13198853M.5389862 .82598879C.5089874 .71798709 .45199586 .6269989 .36799623 .5519867L.43399049 .46699525C.45899964 .48999024 .48199464 .5139923 .5039978 .5389862 .5319977 .5069885 .5629883 .47698976 .59599307 .44699098 .522995 .3909912 .43899537 .34899903 .34498597 .32099916L.3959961 .22898865C.5019989 .2649994 .59599307 .31599427 .6759949 .38198854 .7480011 .32798768 .82899478 .28199769 .91799929 .24299622L.9720001 .33699037C.8909912 .36898805 .81700137 .40699769 .7489929 .45098878 .8029938 .5089874 .84999087 .57598879 .8889923 .6519928V.73599246H.6199951C.6289978 .7599945 .6369934 .7859955 .644989 .8129883L.5389862 .82598879M.66799929 .5099945C.6279907 .5419922 .59199526 .57598879 .55799868 .6119995 .56199648 .6199951 .5669861 .6279907 .57199099 .6359863H.7689972C.7389984 .59098818 .70599368 .548996 .66799929 .5099945Z"/>
<path id="font_1_3978" d="M.4909973 .8129883V.032989503H.31599427V.6389923H.21099854V.032989503H.051986696V-.069000247H.94799807V.032989503H.5970001V.40098573H.8969879V.5029907H.5970001V.8129883H.4909973Z"/>
<path id="font_1_9" d="M.31199647 .6389923C.33499146 .6389923 .35299684 .6329956 .3659973 .61898806 .3789978 .60598757 .38598634 .58898928 .38598634 .5669861 .38598634 .5309906 .35699464 .49699403 .30099488 .46398927 .2869873 .47999574 .2749939 .49398805 .2659912 .5069885 .24699402 .5339966 .23799134 .5549927 .23799134 .57099917 .23799134 .59298709 .24398804 .6100006 .2559967 .62098696 .2679901 .6329956 .28599549 .6389923 .31199647 .6389923M.20698548 .41099549C.15699768 .3829956 .1309967 .36799623 .12998963 .3659973 .069992069 .32099916 .039993287 .2659912 .039993287 .19999695 .039993287 .12799073 .06498718 .07299805 .116989139 .034988405 .1619873 .0029907227 .22299195-.014007568 .29899598-.014007568 .3889923-.014007568 .46299745 .01499939 .5219879 .07199097L.58898928 0H.73599246L.58699038 .15899658C.6259918 .22999573 .6469879 .31599427 .6499939 .41799928H.5339966C.5299988 .35299684 .5189972 .29699708 .5009918 .25L.36299134 .39698792C.3789978 .40699769 .3959961 .4169922 .41299439 .42599488 .47299195 .46699525 .5029907 .5159912 .5029907 .57398989 .5029907 .6239929 .48298646 .6629944 .44400025 .69099429 .40899659 .71598818 .3659973 .7279968 .31498719 .7279968 .2599945 .7279968 .21499634 .71499636 .17999268 .68699648 .14099121 .6579895 .12199402 .6179962 .12199402 .56799319 .12199402 .54100039 .12998963 .5139923 .14698792 .4869995 .1579895 .46798707 .17799378 .44299317 .20698548 .41099549M.2939911 .08898926C.25498963 .08898926 .22299195 .09899902 .19799805 .116989139 .16999817 .13699341 .15699768 .1639862 .15699768 .19799805 .15699768 .22599793 .16499329 .25099183 .18299866 .27398683 .19699097 .29499818 .21899414 .31399537 .24699402 .33198548L.2679901 .34399415 .44599916 .1539917C.4059906 .11099243 .35598756 .08898926 .2939911 .08898926Z"/>
<path id="font_1_2925" d="M.2749939 .82099917V.38198854C.272995 .18998719 .20298767 .050994874 .066986087-.036010744L.1459961-.10501099C.2979889-.0030059815 .375 .1599884 .3789978 .38198854V.82099917H.2749939M.068984989 .723999V.23199463H.17298889V.723999H.068984989M.42599488 .7529907V.651001H.81700137V.41799928H.45298768V.31799317H.81700137V.070999149H.4079895V-.03100586H.81700137V-.08000183H.9229889V.7529907H.42599488Z"/>
<path id="font_1_3817" d="M.41299439 .4850006V.3849945H.82699587V.2579956H.43798829V.15899658H.82699587V.03199768H.39898683V-.070007327H.82699587V-.10501099H.93099978V.4850006H.72698977V.81999209H.62098696V.4850006H.41299439M.86299136 .7719879C.83898928 .7029877 .80599978 .6339874 .7649994 .56399539L.8529968 .5179901C.894989 .58599856 .92900088 .6559906 .95500186 .7279968L.86299136 .7719879M.47999574 .7649994 .3880005 .7200012C.42399598 .6599884 .45700074 .59298709 .4889984 .5189972L.57899478 .56399539C.5469971 .6369934 .5139923 .70399478 .47999574 .7649994M.28199769 .37298585C.30299378 .34098817 .32699586 .3019867 .35499574 .25498963L.4139862 .34298707C.36999513 .397995 .32598878 .44898988 .28199769 .49499513V.5359955H.3899994V.6369934H.28199769V.82099917H.1769867V.6369934H.052993776V.5359955H.17399597C.14399719 .42599488 .09498596 .32798768 .027999878 .24198914L.07398987 .12799073C.11399841 .19400025 .14898682 .2669983 .1769867 .34498597V-.10101318H.28199769V.37298585Z"/>
<path id="font_1_1872" d="M.5529938 .19198609C.5269928 .18598938 .5 .1789856 .47200013 .17199707V.69299319H.526001V.6349945H.56599429C.5799866 .47499085 .62098696 .32798768 .68899539 .19198609 .6389923 .10899353 .57499697 .037994386 .49899293-.021011353L.56999209-.103012088C.6380005-.04901123 .69699099 .01499939 .746994 .08999634 .7899933 .021987915 .84098818-.042007448 .8999939-.103012088L.9700012-.021011353C.9039917 .040985109 .84799197 .10998535 .8029938 .18499756 .86698916 .31199647 .9099884 .46398927 .93099978 .6399994V.7350006H.5369873V.79100039H.052993776V.69299319H.12199402V.10798645C.09498596 .10398865 .067993167 .100997928 .039993287 .09799194L.06599426-.005004883C.16999817 .010986328 .27198792 .027999878 .36999513 .04798889V-.10101318H.47200013V.068984989C.49798585 .07499695 .5249939 .08198547 .5529938 .08799744V.19198609M.6619873 .6349945H.83299258C.81700137 .5099945 .7869873 .397995 .74398806 .29899598 .69999697 .40098573 .6719971 .5130005 .6619873 .6349945M.36999513 .1499939C.32199098 .13999939 .27398683 .1309967 .22399903 .12298584V.25898744H.36999513V.1499939M.22399903 .35299684V.47599793H.36999513V.35299684H.22399903M.22399903 .56999209V.69299319H.36999513V.56999209H.22399903Z"/>
<path id="font_1_4222" d="M.5799866 .81799319V.5529938H.37298585V-.0980072H.47799684V.11099243H.79100039V.04598999C.79100039 .016998291 .776001 .0019989014 .7480011 .0019989014L.6469879 .004989624 .673996-.0960083H.7829895C.8569946-.0960083 .894989-.056015016 .894989 .022994996V.5529938H.6859894V.81799319H.5799866M.47799684 .2809906H.79100039V.19898987H.47799684V.2809906M.79100039 .36898805H.47799684V.45199586H.79100039V.36898805M.40899659 .79599 .32299806 .7549896C.3619995 .7049866 .397995 .6499939 .43099977 .58898928L.5130005 .6299896C.47898866 .6899872 .44499208 .74598696 .40899659 .79599M.84999087 .79599C.82398989 .73799136 .78900149 .67900088 .7449951 .61898806L.82499697 .57699587C.8699951 .6349945 .9069977 .69400027 .93499758 .7559967L.84999087 .79599M.21598816 .3039856C.16999817 .18299866 .115997318 .06498718 .053985597-.05101013L.1499939-.0940094C.20799256 .018997193 .2599945 .13999939 .30799867 .2679901L.21598816 .3039856M.1459961 .8129883 .07199097 .7409973C.147995 .68699648 .20599365 .6369934 .24699402 .58999636L.32099916 .6649933C.272995 .71398928 .21499634 .7630005 .1459961 .8129883M.117996219 .57899478 .04399109 .5069885C.114990238 .45199586 .16999817 .40098573 .20899964 .35499574L.2829895 .42900086C.23799134 .47898866 .18299866 .5289917 .117996219 .57899478Z"/>
<path id="font_2_6738" d="M.117996219 .79599 .08299255 .74198916C.13798523 .723999 .19198609 .69999697 .24598694 .66799929L.28399659 .7259979C.23399353 .7539978 .17799378 .7769928 .117996219 .79599M.43998719 .81999209C.41600038 .7489929 .37199403 .68899539 .30599977 .6409912L.34799195 .58499148C.38598634 .61499026 .4189911 .647995 .44699098 .6839905H.57499697C.5629883 .6279907 .5379944 .58399966 .5019989 .5509949 .45799256 .5130005 .3869934 .48399354 .2889862 .46299745L.31599427 .39898683C.42799378 .4249878 .5079956 .46199037 .5569916 .5079956 .57199099 .5239868 .58499148 .54100039 .5970001 .5589905 .6589966 .47898866 .7630005 .4249878 .9089966 .394989L.93499758 .45899964C.7809906 .48799134 .6779938 .54100039 .6259918 .6179962 .6339874 .6380005 .6399994 .6599884 .6439972 .6839905H.81399539C.8019867 .644989 .7879944 .6100006 .7709961 .57899478L.83999636 .55799868C.8600006 .60598757 .8759918 .6549988 .8880005 .70399478V.746994H.4850006C.49499513 .7669983 .5029907 .78900149 .5109863 .8109894L.43998719 .81999209M.81999209 .37199403H.1769867V.066986087H.24899292V.30499269H.7480011V.07499695H.81999209V.37199403M.46998597 .2669983C.46199037 .1639862 .43499757 .09098816 .3899994 .04798889 .33898927 .0019989014 .23399353-.025009156 .07499695-.03401184L.102996829-.0980072C.2829895-.08401489 .39898683-.04901123 .45098878 .004989624 .49798585 .04899597 .5279999 .13398743 .5419922 .26098634L.46998597 .2669983M.25698854 .60798647C.20498657 .55799868 .14099121 .5109863 .06498718 .46798707L.11299133 .4119873C.18699646 .45799256 .24899292 .5069885 .29899598 .5589905L.25698854 .60798647M.5649872 .07798767 .5279999 .022994996C.6489868-.008010864 .7669983-.05101013 .8809967-.10501099L.91999819-.045013429C.8129883 .0029907227 .69499209 .04399109 .5649872 .07798767Z"/>
<path id="font_2_1342" d="M.5019989 .8299866 .4269867 .81700137C.44499208 .7859955 .46199037 .7519989 .47599793 .71398928H.10998535V.644989H.29299928L.33499146 .49299623H.12998963V.27598573C.12799073 .13699341 .09700012 .027999878 .038986207-.05000305L.09399414-.09901428C.16299439-.005004883 .19898987 .11999512 .20298767 .27598573V.42399598H.92099V.49299623H.6769867C.69799807 .54100039 .71398928 .59199526 .7259979 .644989H.8999939V.71398928H.548996C.5339966 .7569885 .5179901 .79599 .5019989 .8299866M.4059906 .49299623 .3639984 .644989H.6569977C.6469879 .59199526 .6299896 .54100039 .60798647 .49299623H.4059906Z"/>
<path id="font_2_1502" d="M.1539917 .45999146V-.102005008H.22499085V.5779877C.2599945 .6459961 .2889862 .71798709 .31298829 .79499819L.24598694 .82598879C.20098877 .66999819 .12998963 .5309906 .03199768 .4099884L.054992677 .33299256C.09098816 .37298585 .12399292 .41600038 .1539917 .45999146M.30899049 .68499758V.61698916H.95999148V.68499758H.644989L.68299868 .69898989C.67099 .73599246 .6549988 .776001 .6339874 .81999209L.5649872 .8009949C.58499148 .7630005 .60198977 .72499087 .61698916 .68499758H.30899049M.40098573 .5359955V.47099305H.8739929V.5359955H.40098573M.40098573 .394989V.32899476H.8739929V.394989H.40098573M.8919983 .24699402H.38198854V-.1000061H.45199586V-.04600525H.82199099V-.1000061H.8919983V.24699402M.45199586 .021987915V.17999268H.82199099V.021987915H.45199586Z"/>
<path id="font_2_3059" d="M.19099427 .7429962V.2539978H.81700137V.7429962H.4869995C.49899293 .7649994 .5089874 .7879944 .5169983 .8129883L.44198609 .82299807C.43499757 .79499819 .4249878 .7689972 .41099549 .7429962H.19099427M.746994 .31599427H.26098634V.3999939H.746994V.31599427M.26098634 .45799256V.5399933H.746994V.45799256H.26098634M.26098634 .59799197V.6799927H.746994V.59799197H.26098634M.14099121 .18598938C.12199402 .10798645 .09098816 .035995485 .04798889-.028015137L.10899353-.06700134C.1519928 .0009918213 .18499756 .07998657 .20899964 .17199707L.14099121 .18598938M.6230011-.085006717C.6609955-.085006717 .6899872-.07701111 .70799258-.06201172 .7279968-.043014528 .74198916 .0079956059 .75 .09199524L.68099978 .11399841C.6769867 .04899597 .66799929 .009994507 .6559906-.0040130617 .647995-.014007568 .6319885-.020004273 .60899356-.020004273H.3869934C.3639984-.020004273 .35299684-.008010864 .35299684 .01499939V.19099427H.27999879V0C.27999879-.056015016 .30799867-.085006717 .3659973-.085006717H.6230011M.4889984 .22698975 .43598939 .19400025C.48799134 .14199829 .5279999 .09498596 .55799868 .051986696L.61299136 .08999634C.58399966 .1289978 .54299929 .1749878 .4889984 .22698975M.81199648 .20399475 .7559967 .16899109C.81700137 .08999634 .8659973 .017990113 .9019928-.04701233L.95899966-.007003784C.9249878 .052993776 .8759918 .12399292 .81199648 .20399475Z"/>
<path id="font_2_1870" d="M.115997318 .5099945H.3639984C.2939911 .2869873 .18699646 .11199951 .040985109-.01600647L.07798767-.08200073C.19198609 .010986328 .28599549 .13598633 .35899354 .2939911 .3919983 .22399903 .44699098 .15899658 .5249939 .09899902 .44999696 .049987794 .35699464 .004989624 .24499512-.036010744L.2829895-.103012088C.4039917-.056015016 .5059967-.0040130617 .58799746 .053985597 .6719971-.0010070801 .7779999-.052001954 .9059906-.09901428L.94299319-.03201294C.82699587 .0079956059 .7279968 .051986696 .6469879 .099990848 .72898867 .16999817 .7829895 .24798584 .80999758 .33399964V.3959961H.40098573C.4149933 .43199159 .4269867 .46998597 .43899537 .5099945H.9259949V.57899478H.45799256C.47599793 .6529999 .49198915 .73098757 .5049896 .8149872L.43199159 .82398989C.41999818 .73799136 .4039917 .6569977 .38398744 .57899478H.20899964L.2659912 .776001 .19499207 .7879944 .115997318 .5099945M.41299439 .32998658H.7369995C.70899966 .2619934 .6579895 .19898987 .58399966 .14099121 .5039978 .19898987 .44699098 .2619934 .41299439 .32998658M.6729889 .81599429 .625 .7689972C.69999697 .70899966 .7589874 .6529999 .8009949 .59999087L.85198977 .651001C.80400088 .70599368 .7449951 .7609863 .6729889 .81599429Z"/>
<path id="font_2_2802" d="M.5289917 .55400088V.43199159H.2939911C.34199525 .4889984 .38398744 .5509949 .41999818 .61698916H.9399872V.68699648H.45498658C.47299195 .7259979 .4889984 .7679901 .5029907 .81199648L.42999269 .82099917C.4149933 .7749939 .39698792 .73098757 .375 .68699648H.069992069V.61698916H.33699037C.2639923 .49499513 .1639862 .3880005 .036987306 .2939911L.08299255 .23399353C.14199829 .2789917 .19599915 .32699586 .24598694 .37799073V-.005004883H.31498719V.36499024H.5289917V-.1000061H.59799197V.36499024H.8109894V.11099243C.8109894 .08198547 .79499819 .066986087 .7630005 .066986087L.673996 .068984989 .69200137 .0019989014H.7859955C.84799197 .0019989014 .8799896 .033996583 .8799896 .09599304V.43199159H.59799197V.55400088H.5289917Z"/>
<path id="font_2_2605" d="M.24499512 .2809906H.46699525V.1659851H.24499512V.2809906M.46699525 .099990848V-.103012088H.5389862V.099990848H.7639923V.04399109H.83399966V.526001H.5389862V.6259918H.46699525V.526001H.1749878V.040985109H.24499512V.099990848H.46699525M.5389862 .1659851V.2809906H.7639923V.1659851H.5389862M.7639923 .34498597H.5389862V.45999146H.7639923V.34498597M.46699525 .45999146V.34498597H.24499512V.45999146H.46699525M.9149933 .7409973H.5359955C.526001 .772995 .5169983 .8009949 .5069885 .82598879L.43099977 .8129883C.44198609 .79100039 .45199586 .7669983 .46199037 .7409973H.08099365V.5609894H.15098572V.6759949H.8450012V.56599429H.9149933V.7409973Z"/>
<path id="font_2_3792" d="M.26098634 .40899659C.29100038 .3659973 .32598878 .30899049 .36698915 .23899842L.40699769 .2999878C.35699464 .36999513 .30899049 .43199159 .26098634 .4869995V.5519867H.3789978V.62098696H.26098634V.81599429H.19198609V.62098696H.053985597V.5519867H.18899536C.15899658 .41999818 .10798645 .3019867 .036987306 .19799805L.066986087 .125C.117996219 .20698548 .1599884 .29899598 .19198609 .40098573V-.1000061H.26098634V.40899659M.4039917 .70700076V.6419983H.59799197C.5339966 .5329895 .48298646 .46598817 .44299317 .43998719 .43899537 .43798829 .43499757 .43598939 .42900086 .43399049L.44400025 .375C.522995 .37799073 .59799197 .38198854 .66799929 .38598634 .58599856 .2939911 .4850006 .22698975 .3639984 .18399048L.40299989 .12399292C.5970001 .19599915 .7429962 .33198548 .84298709 .5299988L.7849884 .5609894C.7649994 .5209961 .74198916 .48399354 .71598818 .44799806 .6539917 .44299317 .59098818 .43899537 .5269928 .43499757 .56900027 .47599793 .61698916 .54499819 .6719971 .6419983H.94599917V.70700076H.723999C.70999148 .7489929 .69499209 .7859955 .6799927 .81799319L.60598757 .80599978C.6239929 .776001 .6399994 .7429962 .6539917 .70700076H.4039917M.723999 .102996829C.7979889 .032989503 .8569946-.03300476 .901001-.09500122L.9529877-.043014528C.9029999 .019989014 .84098818 .08299255 .7689972 .14698792 .83399966 .21299744 .8909912 .29100038 .93899539 .3809967L.8779907 .41299439C.7609863 .19400025 .58499148 .04598999 .34999085-.03100586L.3889923-.09300232C.5169983-.04901123 .6279907 .016998291 .723999 .102996829Z"/>
<path id="font_2_6999" d="M.12599182 .8009949 .07699585 .7539978C.1499939 .69799807 .20698548 .644989 .24899292 .59498599L.2999878 .644989C.25299073 .69699099 .19499207 .7489929 .12599182 .8009949M.71099856-.08200073H.9379883L.95500186-.010009766C.92900088-.012008667 .8919983-.013000488 .84399417-.014007568 .79499819-.015014648 .746994-.01600647 .70098879-.01600647 .621994-.01600647 .55599978-.015014648 .5029907-.014007568 .44299317-.012008667 .397995-.0040130617 .3659973 .009994507 .33799745 .022994996 .31199647 .04399109 .28799439 .07299805 .2789917 .08299255 .2709961 .08999634 .2630005 .09599304V.46998597H.053985597V.4039917H.19599915V.099990848C.15499878 .08198547 .10798645 .0309906 .054992677-.053009035L.10899353-.102005008C.1639862-.010009766 .20399475 .035995485 .22799683 .035995485 .23999024 .035995485 .25299073 .027999878 .2669983 .010986328 .2979889-.025009156 .33399964-.05000305 .37399293-.06201172 .4139862-.073013309 .46699525-.07901001 .5319977-.08000183 .59599307-.08100891 .6559906-.08200073 .71099856-.08200073M.5319977 .7049866 .48799134 .6619873C.5369873 .6359863 .58099368 .60899356 .61898806 .58200076H.36898805V.049987794H.43699647V.22499085H.60398867V.052993776H.67099V.22499085H.83898928V.1499939C.83898928 .12799073 .82699587 .115997318 .8029938 .115997318L.723999 .11898804 .73999026 .057998659H.82299807C.8789978 .057998659 .9069977 .083999637 .9069977 .1349945V.58200076H.70899966L.69299319 .59498599C.7630005 .6329956 .8279877 .6779938 .8880005 .7299957V.7819977H.34700013V.72099307H.79100039C.746994 .68699648 .69898989 .6569977 .6469879 .6299896 .61299136 .6549988 .57398989 .6799927 .5319977 .7049866M.43699647 .37199403H.60398867V.28399659H.43699647V.37199403M.67099 .37199403H.83898928V.28399659H.67099V.37199403M.83898928 .43199159H.67099V.5219879H.83898928V.43199159M.60398867 .43199159H.43699647V.5219879H.60398867V.43199159Z"/>
<path id="font_2_6950" d="M.12298584 .8029938 .07299805 .7559967C.14498902 .69799807 .20098877 .6429901 .24198914 .59199526L.2939911 .644989C.24798584 .69699099 .19099427 .75 .12298584 .8029938M.73098757-.08200073H.94200137L.95999148-.009002686C.9359894-.011001587 .901001-.012008667 .85598757-.013000488 .80999758-.013000488 .7659912-.014007568 .7220001-.014007568 .6399994-.014007568 .57099917-.013000488 .5159912-.012008667 .45399476-.010009766 .4059906-.0030059815 .37399293 .009994507 .34498597 .023986817 .31799317 .04499817 .2919922 .07299805 .2829895 .08299255 .27398683 .08999634 .2659912 .09599304V.47099305H.052993776V.40299989H.19699097V.099990848C.15499878 .08198547 .10798645 .02999878 .053985597-.056015016L.10798645-.104003909C.1639862-.010009766 .20498657 .035995485 .22898865 .035995485 .24198914 .035995485 .2559967 .027999878 .269989 .010986328 .3019867-.025009156 .33898927-.05000305 .3809967-.06201172 .42199708-.073013309 .47698976-.07901001 .54499819-.08000183 .6119995-.08100891 .673996-.08200073 .73098757-.08200073M.70098879 .051986696C.7609863 .051986696 .7919922 .08198547 .7919922 .13999939V.58200076H.9399872V.6529999H.7919922V.8149872H.71899417V.6529999H.34098817V.58200076H.71899417V.15699768C.71899417 .12998963 .70399478 .115997318 .6759949 .115997318 .6339874 .115997318 .58898928 .117996219 .54299929 .12098694L.5589905 .051986696H.70098879M.44999696 .49299623 .3939972 .45700074C.45498658 .38398744 .5029907 .31799317 .5389862 .2579956L.5970001 .2979889C.5629883 .35398866 .5139923 .4189911 .44999696 .49299623Z"/>
<path id="font_2_4777" d="M.46499635 .81399539V.6639862H.14399719V.09799194H.21499634V.1659851H.46499635V-.0960083H.5389862V.1659851H.7849884V.10499573H.85598757V.6639862H.5389862V.81399539H.46499635M.21499634 .23399353V.38398744H.46499635V.23399353H.21499634M.5389862 .23399353V.38398744H.7849884V.23399353H.5389862M.21499634 .44898988V.5970001H.46499635V.44898988H.21499634M.5389862 .44898988V.5970001H.7849884V.44898988H.5389862Z"/>
<path id="font_2_6615" d="M.6139984 .81700137V.7519989H.37199403V.69299319H.6139984V.6259918H.4119873V.56799319H.6139984V.5H.34399415V.43998719H.95599368V.5H.68299868V.56799319H.894989V.6259918H.68299868V.69299319H.93099978V.7519989H.68299868V.81700137H.6139984M.4889984 .18798828H.81199648V.114990238H.4889984V.18798828M.81199648 .24398804H.4889984V.31799317H.81199648V.24398804M.4889984 .05899048H.81199648V.0019989014C.81199648-.021011353 .798996-.03300476 .7749939-.03300476L.69499209-.030014039 .71199038-.0940094H.79599C.85198977-.0940094 .8809967-.06700134 .8809967-.013000488V.3769989H.41999818V-.1000061H.4889984V.05899048M.16299439 .80599978 .11199951 .7569885C.18399048 .7029877 .24099732 .6519928 .2829895 .60398867L.33198548 .6539917C.28599549 .7049866 .22999573 .7559967 .16299439 .80599978M.041992189 .5109863V.44198609H.18499756V.04499817C.18499756 .027999878 .1769867 .0129852299 .1619873-.0010070801L.18998719-.06500244C.2519989-.020004273 .31199647 .03199768 .36799623 .08999634L.34899903 .1659851C.31498719 .1309967 .28399659 .099990848 .2539978 .07199097V.5109863H.041992189Z"/>
<path id="font_2_6627" d="M.5 .59399417V.5349884H.61499026V.44099427H.48399354V.3809967H.81599429V.44099427H.68299868V.5349884H.798996V.59399417H.68299868V.6729889H.61499026V.59399417H.5M.5159912 .30999757V.054992677H.7819977V.30999757H.5159912M.7200012 .11399841H.5779877V.25H.7200012V.11399841M.92099 .7769928H.37998963V.22499085C.37799073 .11399841 .35398866 .021987915 .30599977-.05101013L.35899354-.1000061C.4169922-.01600647 .44599916 .09399414 .44799806 .22898865V.71199038H.8529968V.017990113C.8529968-.015014648 .83799746-.03201294 .80999758-.03201294 .7819977-.03201294 .7509918-.03100586 .71798709-.029006958L.7350006-.09500122H.83099368C.8909912-.09500122 .92099-.06500244 .92099-.006011963V.7769928M.1639862 .8049927 .11399841 .7559967C.18099976 .7029877 .23399353 .6529999 .27398683 .6049957L.32299806 .6549988C.27999879 .7049866 .22698975 .7549896 .1639862 .8049927M.041992189 .5109863V.44198609H.18099976V.06399536C.18099976 .04798889 .17298889 .034988405 .15899658 .022994996L.18699646-.041000368C.24299622-.0010070801 .29499818 .04399109 .34399415 .09399414L.32598878 .16499329C.2999878 .13899231 .2749939 .115997318 .25099183 .09399414V.5109863H.041992189Z"/>
<path id="font_2_3295" d="M.38198854 .5249939H.548996C.5359955 .45700074 .519989 .394989 .5009918 .33699037 .45298768 .19400025 .38198854 .070999149 .2869873-.03100586L.33299256-.08900452C.42900086 .020996094 .5019989 .14498902 .5529938 .2829895 .57598879 .21099854 .6139984 .14399719 .6669922 .083999637 .61099246 .02999878 .5419922-.014007568 .45999146-.04701233L.49899293-.10800171C.58099368-.072006229 .6519928-.024002076 .71199038 .036987306 .7679901-.01600647 .83898928-.06300354 .923996-.10501099L.96299746-.042007448C.8809967-.005004883 .81199648 .037994386 .7559967 .08699036 .80999758 .1539917 .8529968 .23399353 .8860016 .32699586V.3889923H.58499148C.59599307 .43099977 .60598757 .47698976 .6159973 .5249939H.93699648V.59098818H.6279907C.6399994 .6629944 .6489868 .7389984 .6569977 .82099917H.58599856C.5799866 .73999026 .57199099 .6629944 .5609894 .59098818H.46199037C.47200013 .6409912 .48298646 .69898989 .49398805 .7659912L.4269867 .772995C.4169922 .70098879 .4019928 .61898806 .38198854 .5249939M.70999148 .1309967C.6579895 .18899536 .6230011 .25299073 .6029968 .32499696H.8149872C.79100039 .25299073 .7559967 .18798828 .70999148 .1309967M.1639862-.08900452C.22299195-.08900452 .25299073-.059005739 .25299073 .0009918213V.28399659C.29299928 .30099488 .33299256 .31900025 .37199403 .33799745V.4099884C.33299256 .3899994 .29299928 .37098695 .25299073 .35398866V.56399539H.34799195V.6329956H.25299073V.81599429H.18099976V.6329956H.049987794V.56399539H.18099976V.32598878C.1329956 .30899049 .083999637 .29499818 .033996583 .2829895L.051986696 .21199036C.09599304 .22499085 .13899231 .23899842 .18099976 .25498963V.018997193C.18099976-.010009766 .16699219-.025009156 .13899231-.025009156 .11299133-.025009156 .08699036-.023010254 .05899048-.020004273L.07398987-.08900452H.1639862M.7859955 .82199099 .7299957 .7869873C.7819977 .7299957 .82398989 .6779938 .85398867 .6299896L.9109955 .6689911C.8819885 .71299746 .83999636 .7639923 .7859955 .82199099Z"/>
<path id="font_2_5647" d="M.1459961 .71299746V.6459961H.41999818V.5269928H.056991579V.45899964H.5119934C.36999513 .3769989 .21398926 .31498719 .042999269 .2749939L.07299805 .20799256C.1309967 .22698975 .18699646 .24598694 .24099732 .2659912V-.102005008H.31399537V-.057006837H.746994V-.102005008H.81900027V.34799195H.44099427C.49899293 .375 .5519867 .4019928 .59799197 .42999269 .61299136 .43998719 .6279907 .44898988 .6429901 .45899964H.94799807V.5269928H.73399356C.8009949 .58099368 .8639984 .6439972 .9229889 .71398928L.8679962 .7539978C.7969971 .66999819 .71398928 .59399417 .6199951 .5269928H.49398805V.6459961H.7299957V.71299746H.49398805V.81900027H.41999818V.71299746H.1459961M.31399537 .115997318H.746994V.0069885256H.31399537V.115997318M.746994 .17999268H.31399537V.2849884H.746994V.17999268Z"/>
<path id="font_2_1910" d="M.81399539-.0960083C.871994-.0960083 .901001-.06300354 .901001 .0019989014V.7779999H.09899902V-.09901428H.17098999V.70799258H.82899478V.017990113C.82899478-.012008667 .81599429-.027008057 .79100039-.027008057L.6609955-.024002076 .68099978-.0960083H.81399539M.24398804 .59298709V.526001H.7569885V.59298709H.24398804M.2999878 .41799928V.09599304H.70098879V.41799928H.2999878M.6309967 .1599884H.36999513V.35299684H.6309967V.1599884Z"/>
<path id="font_2_3130" d="M.27398683 .69400027 .30599977 .61499026H.06599426V.5519867H.9339905V.61499026H.68499758L.723999 .69400027H.8869934V.7559967H.5349884C.5249939 .7819977 .5139923 .8049927 .5039978 .82598879L.4269867 .81399539C.43699647 .7969971 .44699098 .7779999 .45599366 .7559967H.11299133V.69400027H.27398683M.3809967 .61499026 .34899903 .69400027H.6489868L.6100006 .61499026H.3809967M.17999268 .49299623V.19699097H.81999209V.49299623H.17999268M.75 .25299073H.25V.31900025H.75V.25299073M.25 .37199403V.43598939H.75V.37199403H.25M.13999939 .1499939C.12098694 .083999637 .09098816 .022994996 .049987794-.03201294L.11199951-.071014408C.1539917-.013000488 .18598938 .055999757 .20999146 .13598633L.13999939 .1499939M.6369934-.08401489C.6749878-.08401489 .70199587-.07701111 .7200012-.06500244 .73999026-.04901123 .7539978-.007003784 .7609863 .06199646L.69299319 .083999637C.68899539 .033996583 .68099978 .0029907227 .6689911-.007003784 .6609955-.015014648 .6459961-.019012452 .6239929-.019012452H.4139862C.38198854-.019012452 .3659973-.0040130617 .3659973 .023986817V.14099121H.2919922V.008987427C.2919922-.053009035 .32499696-.08401489 .3929901-.08401489H.6369934M.5109863 .17799378 .44999696 .13999939C.49198915 .09799194 .5239868 .05899048 .5479889 .022994996L.60798647 .06498718C.58599856 .09799194 .5529938 .13598633 .5109863 .17799378M.82499697 .15899658 .7669983 .12298584C.82099917 .056991579 .86299136-.0030059815 .894989-.058013917L.95500186-.01600647C.9249878 .033996583 .8809967 .09199524 .82499697 .15899658Z"/>
<path id="font_2_1868" d="M.12799073 .59799197 .07598877 .5479889C.147995 .46299745 .21299744 .37998963 .2709961 .29899598 .21699524 .1789856 .14099121 .07499695 .042999269-.011001587L.09199524-.06700134C.18798828 .016998291 .2630005 .115997318 .31900025 .22898865 .35699464 .17098999 .3919983 .114990238 .42199708 .05899048L.47698976 .114990238C.43899537 .1789856 .397995 .24398804 .35299684 .30799867 .397995 .4249878 .42399598 .55599978 .43199159 .70199587V.7569885H.070999149V.6879883H.36299134C.35499574 .5779877 .33399964 .47499085 .3019867 .3789978 .24798584 .45199586 .18998719 .5249939 .12799073 .59799197M.49398805 .7569885V.6879883H.5269928C.5359955 .5329895 .5799866 .3829956 .6589966 .23699951 .59498599 .14299011 .5149994 .052993776 .4189911-.03201294L.46798707-.0920105C.55799868-.009002686 .6349945 .07798767 .69898989 .16899109 .7529907 .08099365 .82299807-.006011963 .9069977-.0920105L.95700076-.03300476C.86898806 .053985597 .7979889 .14299011 .74198916 .23498535 .82899478 .3789978 .8829956 .5309906 .9049988 .69299319V.7569885H.49398805M.59199526 .6879883H.83699038C.8149872 .5529938 .769989 .4249878 .70199587 .30499269 .6369934 .42900086 .59999087 .55599978 .59199526 .6879883Z"/>
<path id="font_2_3548" d="M.06498718 .6689911V.59999087H.34399415C.34298707 .56599429 .34098817 .5179901 .33799745 .45498658 .33299256 .3600006 .31399537 .27398683 .27999879 .19699097 .24499512 .11999512 .17399597 .036987306 .067993167-.053009035L.11999512-.103012088C.20799256-.03201294 .27598573 .04598999 .32499696 .13198853 .36099244 .19799805 .38598634 .2709961 .39898683 .35198976H.7489929C.746994 .21398926 .74398806 .12298584 .73799136 .08099365 .7259979 .010986328 .69499209-.025009156 .6439972-.027008057 .60899356-.027008057 .56599429-.026000977 .5139923-.024002076L.5359955-.08900452C.5799866-.09100342 .61898806-.09300232 .651001-.09300232 .7299957-.0900116 .7789917-.04600525 .798996 .038986207 .81199648 .09498596 .81999209 .22200012 .82199099 .41999818H.40699769V.42199708L.41600038 .59999087H.94299319V.6689911H.56900027C.54499819 .7279968 .5189972 .7789917 .4909973 .82099917L.4229889 .79599C.45199586 .7559967 .47599793 .71299746 .49598695 .6689911H.06498718Z"/>
<path id="font_2_5087" d="M.5239868 .32998658H.6529999V.20199585H.522995C.522995 .21099854 .5239868 .21998596 .5239868 .22799683V.32998658M.5179901 .13899231H.6529999V-.08200073H.71798709V.13899231H.85198977V.004989624C.85198977-.015014648 .84199526-.026000977 .82199099-.026000977 .7999878-.026000977 .7769928-.024002076 .7519989-.022003174L.7689972-.087005618H.84298709C.8939972-.087005618 .91999819-.06401062 .91999819-.019012452V.5799866H.7519989C.7819977 .6100006 .81199648 .647995 .84199526 .69200137V.7429962H.6009979C.61099246 .7630005 .621994 .7829895 .6319885 .80400088L.5629883 .81900027C.5119934 .71499636 .44699098 .6299896 .36799623 .5649872L.41299439 .5119934C.4269867 .5239868 .44198609 .5379944 .45700074 .5519867V.22399903C.45498658 .11399841 .42999269 .021987915 .37998963-.05000305L.43199159-.09701538C.47799684-.03300476 .5059967 .04499817 .5179901 .13899231M.673996 .5799866H.48399354C.5119934 .61099246 .5389862 .644989 .56399539 .6819916H.7589874C.73098757 .6439972 .7029877 .6100006 .673996 .5799866M.85198977 .20199585H.71798709V.32998658H.85198977V.20199585M.85198977 .3939972H.71798709V.5159912H.85198977V.3939972M.6529999 .5159912V.3939972H.5239868V.5159912H.6529999M.066986087 .7609863V.69099429H.17999268C.15699768 .54599 .10998535 .4169922 .037994386 .3039856L.07998657 .23699951C.09799194 .2649994 .115997318 .2939911 .1329956 .32499696V-.06700134H.20098877V.008987427H.37599183V.46398927H.19400025C.21798706 .5339966 .23699951 .6100006 .25 .69099429H.40098573V.7609863H.066986087M.20098877 .07398987V.397995H.30999757V.07398987H.20098877Z"/>
<path id="font_2_6538" d="M.6269989 .81199648C.6269989 .6179962 .6119995 .45899964 .58399966 .33399964 .54599 .18499756 .46798707 .06199646 .35198976-.036010744L.40098573-.09500122C.5339966 .01499939 .61898806 .15699768 .6569977 .32899476 .6619873 .35499574 .6669922 .3809967 .6719971 .40899659 .7279968 .21099854 .8089905 .042999269 .91600039-.09300232L.96798709-.03300476C.83699038 .116989139 .7449951 .32099916 .69200137 .57699587 .69799807 .6489868 .70098879 .7279968 .70098879 .81199648H.6269989M.1619873 .8069916 .11199951 .7579956C.18399048 .70399478 .24198914 .6519928 .28399659 .6029968L.33299256 .6529999C.2869873 .7049866 .22999573 .7559967 .1619873 .8069916M.04499817 .5109863V.44198609H.19198609V.051986696C.19198609 .035995485 .18399048 .020996094 .16899109 .008987427L.19699097-.055007936C.2669983-.009002686 .33299256 .04399109 .394989 .102996829L.3769989 .1769867C.33599855 .13798523 .29699708 .10398865 .26098634 .07398987V.5109863H.04499817Z"/>
<path id="font_2_3674" d="M.46299745 .8129883V.6759949H.1269989V.60598757H.46299745V.42900086H.066986087V.35899354H.397995C.32598878 .22200012 .20999146 .10998535 .049987794 .021987915L.09098816-.045013429C.26098634 .06098938 .38198854 .19499207 .45399476 .35899354H.46299745V-.09701538H.5369873V.35899354H.54499819C.61099246 .21099854 .7299957 .07798767 .8999939-.042007448L.94999697 .021987915C.7859955 .12098694 .66999819 .23298645 .6029968 .35899354H.93299868V.42900086H.5369873V.60598757H.8799896V.6759949H.5369873V.8129883H.46299745Z"/>
<path id="font_2_18" d="M.3919983 .81999209 .036987306-.1000061H.10899353L.46299745 .81999209H.3919983Z"/>
<path id="font_2_1872" d="M.5469971 .17399597C.5169983 .1659851 .4869995 .15899658 .45599366 .1519928V.70999148H.5329895V.6539917H.57299807C.58699038 .48599244 .6309967 .33099366 .7049866 .18899536 .651001 .09899902 .58399966 .022994996 .5029907-.041000368L.5519867-.09701538C.6269989-.038009645 .69099429 .033996583 .7449951 .117996219 .79100039 .042999269 .8470001-.029006958 .91400149-.0980072L.96199038-.043014528C.8909912 .025985718 .83099368 .101989749 .7829895 .18399048 .85198977 .31498719 .897995 .47299195 .91999819 .6579895V.723999H.5329895V.7779999H.056991579V.70999148H.13598633V.09098816C.10598755 .08699036 .07598877 .08198547 .04598999 .07798767L.06298828 .0079956059C.1749878 .023986817 .28199769 .042999269 .38598634 .06498718V-.1000061H.45599366V.08099365C.48599244 .08799744 .5159912 .09498596 .5469971 .102996829V.17399597M.6389923 .6539917H.85198977C.83399966 .5049896 .7969971 .37399293 .7429962 .2599945 .6859894 .3789978 .651001 .5099945 .6389923 .6539917M.38598634 .13598633C.32699586 .12399292 .2669983 .11199951 .20599365 .101989749V.27198792H.38598634V.13598633M.20599365 .33699037V.4889984H.38598634V.33699037H.20599365M.20599365 .5549927V.70999148H.38598634V.5549927H.20599365Z"/>
<path id="font_2_4222" d="M.59599307 .81399539V.54100039H.38198854V-.09500122H.45399476V.11898804H.8149872V.020996094C.8149872-.010009766 .798996-.026000977 .7679901-.026000977L.6559906-.024002076 .6749878-.0940094H.7919922C.85398867-.0940094 .8860016-.06100464 .8860016 .004989624V.54100039H.66999819V.81399539H.59599307M.45399476 .29499818H.8149872V.18099976H.45399476V.29499818M.8149872 .35699464H.45399476V.47200013H.8149872V.35699464M.39698792 .7879944 .33699037 .7589874C.3769989 .70899966 .4139862 .6519928 .44799806 .58898928L.5059967 .61698916C.47099305 .67900088 .43499757 .73599246 .39698792 .7879944M.8699951 .79299929C.84199526 .73298647 .8029938 .6719971 .7549896 .6100006L.81199648 .58099368C.8600006 .6399994 .8989868 .70098879 .92900088 .7649994L.8699951 .79299929M.23298645 .2979889C.18499756 .17599488 .12998963 .056991579 .06599426-.060012819L.13198853-.08900452C.19198609 .023986817 .24598694 .14498902 .29599 .272995L.23298645 .2979889M.1349945 .8019867 .083999637 .7529907C.1579895 .69898989 .21598816 .6489868 .2579956 .6009979L.30899049 .6519928C.2619934 .70199587 .20399475 .7519989 .1349945 .8019867M.10598755 .5669861 .054992677 .5179901C.125 .46398927 .1789856 .41299439 .21899414 .3659973L.269989 .4169922C.22599793 .46699525 .17199707 .5169983 .10598755 .5669861Z"/>
<path id="font_2_3279" d="M.8929901 .19599915V.54100039H.5049896V.70700076H.93499758V.776001H.43199159V-.069000247H.9529877V0H.5049896V.19599915H.8929901M.5049896 .47399903H.82398989V.2639923H.5049896V.47399903M.3869934 .41600038C.34700013 .394989 .30599977 .37599183 .2639923 .35798646V.56399539H.38598634V.6329956H.2639923V.81399539H.19499207V.6329956H.054992677V.56399539H.19499207V.33198548C.14399719 .31399537 .09199524 .29899598 .038986207 .2869873L.056991579 .21398926C.10398865 .22799683 .1499939 .24398804 .19499207 .2599945V.0039978029C.19499207-.018005372 .18499756-.029006958 .16699219-.029006958 .13699341-.029006958 .10598755-.027008057 .07398987-.024002076L.08898926-.0920105H.19099427C.23899842-.0920105 .2639923-.06500244 .2639923-.013000488V.2869873C.30599977 .30499269 .34700013 .32299806 .3869934 .34298707V.41600038Z"/>
<path id="font_2_5495" d="M.36898805 .10699463C.27799989 .06498718 .17199707 .03199768 .051986696 .0069885256L.06098938-.06201172C.17599488-.036010744 .2789917-.0030059815 .36898805 .037994386V.10699463M.20599365 .81999209C.16999817 .70199587 .12799073 .59799197 .07798767 .5059967 .069992069 .49299623 .05999756 .48399354 .04798889 .47898866L.06599426 .41299439C.115997318 .42099 .16499329 .42900086 .21299744 .43798829 .1639862 .34199525 .12298584 .27398683 .08898926 .23399353 .07998657 .22599793 .068984989 .21899414 .055999757 .21398926L.07598877 .14898682C.1659851 .1619873 .26098634 .18699646 .35899354 .22299195V.2869873C.29100038 .26098634 .22399903 .24099732 .1559906 .22698975 .20999146 .29899598 .2789917 .42099 .3619995 .59399417L.29899598 .61698916C.27999879 .57598879 .2619934 .5379944 .24499512 .5019989 .20698548 .49499513 .16799927 .4889984 .12998963 .48399354 .17799378 .5609894 .22599793 .6639862 .27398683 .7939911L.20599365 .81999209M.625 .45999146V.2849884H.49198915V.45999146H.625M.68899539 .2849884V.45999146H.82499697V.2849884H.68899539M.73098757 .526001C.7609863 .56399539 .7919922 .61099246 .82199099 .66600039V.71899417H.58799746C.6009979 .7449951 .61299136 .7719879 .625 .7999878L.55599978 .8149872C.5039978 .68899539 .43699647 .58799746 .35499574 .5099945L.397995 .45799256 .42399598 .48399354V.0039978029C.42399598-.052001954 .45199586-.08000183 .5099945-.08000183H.81999209C.8730011-.07800293 .9079895-.056015016 .9249878-.014007568 .93499758 .01399231 .94400027 .06098938 .95098879 .125L.8839874 .1459961C.8779907 .07798767 .8699951 .035995485 .8619995 .018997193 .84999087-.0010070801 .82899478-.012008667 .798996-.014007568H.5359955C.5059967-.013000488 .49198915 .0009918213 .49198915 .027999878V.21998596H.8929901V.526001H.73098757M.46099855 .526001C.49398805 .5649872 .5249939 .60798647 .5529938 .6549988H.7409973C.71099856 .6049957 .6799927 .56199648 .6499939 .526001H.46099855Z"/>
<path id="font_2_1255" d="M.07499695 .7649994V.69400027H.5189972C.43099977 .5079956 .272995 .34999085 .04699707 .21998596L.09399414 .15699768C.24598694 .24798584 .36898805 .35198976 .46299745 .46899415V-.102005008H.5369873V.57499697C.55999758 .61299136 .58099368 .6529999 .598999 .69400027H.9249878V.7649994H.07499695M.6629944 .49598695 .61099246 .44699098C.7319946 .34799195 .82699587 .25498963 .8969879 .16699219L.95199587 .22299195C.8739929 .31399537 .7779999 .40499879 .6629944 .49598695Z"/>
<path id="font_2_1393" d="M.8779907 .7839966C.73799136 .74398806 .56199648 .72299197 .34999085 .72299197L.37298585 .6549988C.44898988 .6549988 .5209961 .6579895 .58898928 .6629944V.3889923H.2979889V.31900025H.58898928V.004989624H.34799195V-.06600952H.9039917V.004989624H.6609955V.31900025H.95399478V.3889923H.6609955V.66999819C.7569885 .68099978 .84098818 .69898989 .9129944 .72299197L.8779907 .7839966M.269989 .8149872C.22099304 .6639862 .14299011 .5299988 .034988405 .4139862L.057998659 .33699037C.09700012 .37599183 .1329956 .4169922 .16499329 .45899964V-.102005008H.23699951V.56599429C.2769928 .6339874 .31098939 .70700076 .33699037 .7839966L.269989 .8149872Z"/>
<path id="font_2_1246" d="M.049987794 .40299989V.33099366H.94898989V.40299989H.049987794Z"/>
</defs>
<g clip-path="url(#clip_0)">
<path transform="matrix(1,0,0,-1,0,249)" d="M17.57106 60.07106C21.47632 56.16582 21.47632 49.83418 17.57106 45.92894 13.66582 42.02368 7.33418 42.02368 3.42894 45.92894-.47632 49.83418-.47632 56.16582 3.42894 60.07106 7.33418 63.97632 13.66582 63.97632 17.57106 60.07106" fill="#3f4244"/>
<path transform="matrix(1,0,0,-1,0,249)" d="M328.4043 86H410.4043C412.6135 86 414.4043 84.20914 414.4043 82V24C414.4043 21.79086 412.6135 20 410.4043 20H328.4043C326.1952 20 324.4043 21.79086 324.4043 24V82C324.4043 84.20914 326.1952 86 328.4043 86ZM328.4043 86" fill="#ffffff"/>
<path transform="matrix(1,0,0,1,426,650)" stroke-width="2" stroke-linecap="round" stroke-linejoin="round" fill="none" stroke="#b9bfc1" d="M-97.59568-487H-15.59568C-13.38654-487-11.59568-485.2091-11.59568-483V-425C-11.59568-422.7909-13.38654-421-15.59568-421H-97.59568C-99.80482-421-101.5957-422.7909-101.5957-425V-483C-101.5957-485.2091-99.80482-487-97.59568-487ZM-97.59568-487"/>
<use data-text="&#x8d44;" xlink:href="#font_1_6738" transform="matrix(13,0,0,-13,330.40434,201)" fill="#515556"/>
<use data-text="&#x4ea7;" xlink:href="#font_1_1342" transform="matrix(13,0,0,-13,343.40434,201)" fill="#515556"/>
<use data-text="&#x4fe1;" xlink:href="#font_1_1502" transform="matrix(13,0,0,-13,356.40434,201)" fill="#515556"/>
<use data-text="&#x606f;" xlink:href="#font_1_3059" transform="matrix(13,0,0,-13,369.40434,201)" fill="#515556"/>
<use data-text="&#x53d1;" xlink:href="#font_1_1870" transform="matrix(13,0,0,-13,382.40434,201)" fill="#515556"/>
<use data-text="&#x5e03;" xlink:href="#font_1_2802" transform="matrix(13,0,0,-13,395.40434,201)" fill="#515556"/>
<path transform="matrix(1,0,0,-1,0,249)" d="M140.25 86H222.25C224.4591 86 226.25 84.20914 226.25 82V24C226.25 21.79086 224.4591 20 222.25 20H140.25C138.0409 20 136.25 21.79086 136.25 24V82C136.25 84.20914 138.0409 86 140.25 86ZM140.25 86" fill="#ffffff"/>
<path transform="matrix(1,0,0,1,426,650)" stroke-width="2" stroke-linecap="round" stroke-linejoin="round" fill="none" stroke="#b9bfc1" d="M-285.75-487H-203.75C-201.5409-487-199.75-485.2091-199.75-483V-425C-199.75-422.7909-201.5409-421-203.75-421H-285.75C-287.9591-421-289.75-422.7909-289.75-425V-483C-289.75-485.2091-287.9591-487-285.75-487ZM-285.75-487"/>
<use data-text="&#x5ba1;" xlink:href="#font_1_2605" transform="matrix(13,0,0,-13,142.25,201)" fill="#515556"/>
<use data-text="&#x6838;" xlink:href="#font_1_3792" transform="matrix(13,0,0,-13,155.25,201)" fill="#515556"/>
<use data-text="&#x53d1;" xlink:href="#font_1_1870" transform="matrix(13,0,0,-13,168.25,201)" fill="#515556"/>
<use data-text="&#x5e03;" xlink:href="#font_1_2802" transform="matrix(13,0,0,-13,181.25,201)" fill="#515556"/>
<use data-text="&#x4fe1;" xlink:href="#font_1_1502" transform="matrix(13,0,0,-13,194.25,201)" fill="#515556"/>
<use data-text="&#x606f;" xlink:href="#font_1_3059" transform="matrix(13,0,0,-13,207.25,201)" fill="#515556"/>
<path transform="matrix(1,0,0,-1,0,249)" d="M552 86H673C675.2091 86 677 84.20914 677 82V24C677 21.79086 675.2091 20 673 20H552C549.7909 20 548 21.79086 548 24V82C548 84.20914 549.7909 86 552 86ZM552 86" fill="#ffffff"/>
<path transform="matrix(1,0,0,1,426,650)" stroke-width="2" stroke-linecap="round" stroke-linejoin="round" fill="none" stroke="#b9bfc1" d="M126-487H247C249.2091-487 251-485.2091 251-483V-425C251-422.7909 249.2091-421 247-421H126C123.7909-421 122-422.7909 122-425V-483C122-485.2091 123.7909-487 126-487ZM126-487"/>
<use data-text="&#x7b49;" xlink:href="#font_1_5301" transform="matrix(13,0,0,-13,554,201)" fill="#515556"/>
<use data-text="&#x5f85;" xlink:href="#font_1_2951" transform="matrix(13,0,0,-13,567,201)" fill="#515556"/>
<use data-text="&#x8d44;" xlink:href="#font_1_6738" transform="matrix(13,0,0,-13,580,201)" fill="#515556"/>
<use data-text="&#x4ea7;" xlink:href="#font_1_1342" transform="matrix(13,0,0,-13,593,201)" fill="#515556"/>
<use data-text="&#x53d1;" xlink:href="#font_1_1870" transform="matrix(13,0,0,-13,606,201)" fill="#515556"/>
<use data-text="&#x5e03;" xlink:href="#font_1_2802" transform="matrix(13,0,0,-13,619,201)" fill="#515556"/>
<use data-text="&#x8005;" xlink:href="#font_1_5647" transform="matrix(13,0,0,-13,632,201)" fill="#515556"/>
<use data-text="&#x786e;" xlink:href="#font_1_5087" transform="matrix(13,0,0,-13,645,201)" fill="#515556"/>
<use data-text="&#x8ba4;" xlink:href="#font_1_6538" transform="matrix(13,0,0,-13,658,201)" fill="#515556"/>
<path transform="matrix(1,0,0,-1,0,249)" d="M572 248H654C656.2091 248 658 246.2091 658 244V186C658 183.7909 656.2091 182 654 182H572C569.7909 182 568 183.7909 568 186V244C568 246.2091 569.7909 248 572 248ZM572 248" fill="#ffffff"/>
<path transform="matrix(1,0,0,1,426,650)" stroke-width="2" stroke-linecap="round" stroke-linejoin="round" fill="none" stroke="#b9bfc1" d="M146-649H228C230.2091-649 232-647.2091 232-645V-587C232-584.7909 230.2091-583 228-583H146C143.7909-583 142-584.7909 142-587V-645C142-647.2091 143.7909-649 146-649ZM146-649"/>
<use data-text="&#x7b49;" xlink:href="#font_1_5301" transform="matrix(13,0,0,-13,574,39)" fill="#515556"/>
<use data-text="&#x5f85;" xlink:href="#font_1_2951" transform="matrix(13,0,0,-13,587,39)" fill="#515556"/>
<use data-text="&#x53cc;" xlink:href="#font_1_1868" transform="matrix(13,0,0,-13,600,39)" fill="#515556"/>
<use data-text="&#x2f45;" xlink:href="#font_1_3548" transform="matrix(13,0,0,-13,613,39)" fill="#515556"/>
<use data-text="&#x4ea4;" xlink:href="#font_1_1339" transform="matrix(13,0,0,-13,626,39)" fill="#515556"/>
<use data-text="&#x63a5;" xlink:href="#font_1_3379" transform="matrix(13,0,0,-13,639,39)" fill="#515556"/>
<path transform="matrix(1,0,0,-1,0,249)" d="M754 248H836C838.2091 248 840 246.2091 840 244V186C840 183.7909 838.2091 182 836 182H754C751.7909 182 750 183.7909 750 186V244C750 246.2091 751.7909 248 754 248ZM754 248" fill="#ffffff"/>
<path transform="matrix(1,0,0,1,426,650)" stroke-width="2" stroke-linecap="round" stroke-linejoin="round" fill="none" stroke="#b9bfc1" d="M328-649H410C412.2091-649 414-647.2091 414-645V-587C414-584.7909 412.2091-583 410-583H328C325.7909-583 324-584.7909 324-587V-645C324-647.2091 325.7909-649 328-649ZM328-649"/>
<use data-text="&#x8c03;" xlink:href="#font_1_6627" transform="matrix(13,0,0,-13,756,39)" fill="#515556"/>
<use data-text="&#x62e8;" xlink:href="#font_1_3295" transform="matrix(13,0,0,-13,769,39)" fill="#515556"/>
<use data-text="&#x5b8c;" xlink:href="#font_1_2592" transform="matrix(13,0,0,-13,782,39)" fill="#515556"/>
<use data-text="&#x6210;" xlink:href="#font_1_3182" transform="matrix(13,0,0,-13,795,39)" fill="#515556"/>
<use data-text="&#x5ba1;" xlink:href="#font_1_2605" transform="matrix(13,0,0,-13,808,39)" fill="#515556"/>
<use data-text="&#x6838;" xlink:href="#font_1_3792" transform="matrix(13,0,0,-13,821,39)" fill="#515556"/>
<path transform="matrix(1,0,0,-1,0,249)" d="M767 86H823C825.2091 86 827 84.20914 827 82V24C827 21.79086 825.2091 20 823 20H767C764.7909 20 763 21.79086 763 24V82C763 84.20914 764.7909 86 767 86ZM767 86" fill="#ffffff"/>
<path transform="matrix(1,0,0,1,426,650)" stroke-width="2" stroke-linecap="round" stroke-linejoin="round" fill="none" stroke="#b9bfc1" d="M341-487H397C399.2091-487 401-485.2091 401-483V-425C401-422.7909 399.2091-421 397-421H341C338.7909-421 337-422.7909 337-425V-483C337-485.2091 338.7909-487 341-487ZM341-487"/>
<use data-text="&#x8c03;" xlink:href="#font_1_6627" transform="matrix(13,0,0,-13,769,201)" fill="#515556"/>
<use data-text="&#x62e8;" xlink:href="#font_1_3295" transform="matrix(13,0,0,-13,782,201)" fill="#515556"/>
<use data-text="&#x6210;" xlink:href="#font_1_3182" transform="matrix(13,0,0,-13,795,201)" fill="#515556"/>
<use data-text="&#x529f;" xlink:href="#font_1_1745" transform="matrix(13,0,0,-13,808,201)" fill="#515556"/>
<path transform="matrix(1,0,0,-1,0,249)" d="M148.3685 248H214.1315C216.3406 248 218.1315 246.2091 218.1315 244V186C218.1315 183.7909 216.3406 182 214.1315 182H148.3685C146.1594 182 144.3685 183.7909 144.3685 186V244C144.3685 246.2091 146.1594 248 148.3685 248ZM148.3685 248" fill="#ffffff"/>
<path transform="matrix(1,0,0,1,426,650)" stroke-width="2" stroke-linecap="round" stroke-linejoin="round" fill="none" stroke="#b9bfc1" d="M-277.6315-649H-211.8685C-209.6594-649-207.8685-647.2091-207.8685-645V-587C-207.8685-584.7909-209.6594-583-211.8685-583H-277.6315C-279.8406-583-281.6315-584.7909-281.6315-587V-645C-281.6315-647.2091-279.8406-649-277.6315-649ZM-277.6315-649"/>
<use data-text="&#x7ec8;" xlink:href="#font_1_5475" transform="matrix(13,0,0,-13,150.3685,39)" fill="#515556"/>
<use data-text="&#x2f4c;" xlink:href="#font_1_3978" transform="matrix(13,0,0,-13,163.3685,39)" fill="#515556"/>
<use data-text="&amp;" xlink:href="#font_1_9" transform="matrix(13,0,0,-13,176.3685,39)" fill="#515556"/>
<use data-text="&#x5f52;" xlink:href="#font_1_2925" transform="matrix(13,0,0,-13,186.1315,39)" fill="#515556"/>
<use data-text="&#x6863;" xlink:href="#font_1_3817" transform="matrix(13,0,0,-13,199.1315,39)" fill="#515556"/>
<path transform="matrix(1,0,0,-1,0,249)" d="M328.4043 248H410.4043C412.6135 248 414.4043 246.2091 414.4043 244V186C414.4043 183.7909 412.6135 182 410.4043 182H328.4043C326.1952 182 324.4043 183.7909 324.4043 186V244C324.4043 246.2091 326.1952 248 328.4043 248ZM328.4043 248" fill="#ffffff"/>
<path transform="matrix(1,0,0,1,426,650)" stroke-width="2" stroke-linecap="round" stroke-linejoin="round" fill="none" stroke="#b9bfc1" d="M-97.59568-649H-15.59568C-13.38654-649-11.59568-647.2091-11.59568-645V-587C-11.59568-584.7909-13.38654-583-15.59568-583H-97.59568C-99.80482-583-101.5957-584.7909-101.5957-587V-645C-101.5957-647.2091-99.80482-649-97.59568-649ZM-97.59568-649"/>
<use data-text="&#x5ba1;" xlink:href="#font_1_2605" transform="matrix(13,0,0,-13,330.40434,39)" fill="#515556"/>
<use data-text="&#x6838;" xlink:href="#font_1_3792" transform="matrix(13,0,0,-13,343.40434,39)" fill="#515556"/>
<use data-text="&#x53d6;" xlink:href="#font_1_1872" transform="matrix(13,0,0,-13,356.40434,39)" fill="#515556"/>
<use data-text="&#x6d88;" xlink:href="#font_1_4222" transform="matrix(13,0,0,-13,369.40434,39)" fill="#515556"/>
<use data-text="&#x4fe1;" xlink:href="#font_1_1502" transform="matrix(13,0,0,-13,382.40434,39)" fill="#515556"/>
<use data-text="&#x606f;" xlink:href="#font_1_3059" transform="matrix(13,0,0,-13,395.40434,39)" fill="#515556"/>
<path transform="matrix(1,0,0,1,426,650)" stroke-width="2" stroke-linecap="square" stroke-linejoin="bevel" fill="none" stroke="#666a6b" d="M-405.5-454H-303.65"/>
<path transform="matrix(1,0,0,1,426,650)" stroke-width="2" stroke-linecap="butt" stroke-miterlimit="10" stroke-linejoin="miter" fill="none" stroke="#666a6b" d="M-294.05-454H-303.65M-303.65-457.6-294.05-454-303.65-450.4"/>
<path transform="matrix(1,0,0,1,426,650)" stroke-width="2" stroke-linecap="square" stroke-linejoin="bevel" fill="none" stroke="#666a6b" d="M-198.75-454H-115.4957"/>
<path transform="matrix(1,0,0,1,426,650)" stroke-width="2" stroke-linecap="butt" stroke-miterlimit="10" stroke-linejoin="miter" fill="none" stroke="#666a6b" d="M-105.8957-454H-115.4957M-115.4957-457.6-105.8957-454-115.4957-450.4"/>
<path transform="matrix(1,0,0,1,426,650)" stroke-width="2" stroke-linecap="square" stroke-linejoin="bevel" fill="none" stroke="#666a6b" d="M-10.59568-454H108.1"/>
<path transform="matrix(1,0,0,1,426,650)" stroke-width="2" stroke-linecap="butt" stroke-miterlimit="10" stroke-linejoin="miter" fill="none" stroke="#666a6b" d="M117.7-454H108.1M108.1-457.6 117.7-454 108.1-450.4"/>
<path transform="matrix(1,0,0,1,426,650)" stroke-width="2" stroke-linecap="square" stroke-linejoin="bevel" fill="none" stroke="#666a6b" d="M186.6049-488 186.8552-569.1001"/>
<path transform="matrix(1,0,0,1,426,650)" stroke-width="2" stroke-linecap="butt" stroke-miterlimit="10" stroke-linejoin="miter" fill="none" stroke="#666a6b" d="M186.8849-578.7 186.8552-569.1001M183.2553-569.1112 186.8849-578.7 190.4552-569.089"/>
<path transform="matrix(1,0,0,1,426,650)" stroke-width="2" stroke-linecap="square" stroke-linejoin="bevel" fill="none" stroke="#666a6b" d="M233-616H310.1"/>
<path transform="matrix(1,0,0,1,426,650)" stroke-width="2" stroke-linecap="butt" stroke-miterlimit="10" stroke-linejoin="miter" fill="none" stroke="#666a6b" d="M319.7-616H310.1M310.1-619.6 319.7-616 310.1-612.4"/>
<path transform="matrix(1,0,0,1,426,650)" stroke-width="2" stroke-linecap="square" stroke-linejoin="bevel" fill="none" stroke="#666a6b" d="M369-582V-500.9"/>
<path transform="matrix(1,0,0,1,426,650)" stroke-width="2" stroke-linecap="butt" stroke-miterlimit="10" stroke-linejoin="miter" fill="none" stroke="#666a6b" d="M369-491.3V-500.9M372.6-500.9 369-491.3 365.4-500.9"/>
<path transform="matrix(1,0,0,1,426,650)" stroke-width="2" stroke-linecap="square" stroke-linejoin="bevel" fill="none" stroke="#666a6b" d="M-244.75-488V-569.1"/>
<path transform="matrix(1,0,0,1,426,650)" stroke-width="2" stroke-linecap="butt" stroke-miterlimit="10" stroke-linejoin="miter" fill="none" stroke="#666a6b" d="M-244.75-578.7V-569.1M-248.35-569.1-244.75-578.7-241.15-569.1"/>
<path transform="matrix(1,0,0,1,426,650)" stroke-width="2" stroke-linecap="square" stroke-linejoin="bevel" fill="none" stroke="#666a6b" d="M-95.84265-488C-106.6796-501.1475-115.5251-517.325-115.5251-535.1064-115.5251-548.3771-110.5981-560.7367-103.5935-571.6025"/>
<path transform="matrix(1,0,0,1,426,650)" stroke-width="2" stroke-linecap="butt" stroke-miterlimit="10" stroke-linejoin="miter" fill="none" stroke="#666a6b" d="M-97.91262-579.34-103.5941-571.6017M-106.4959-573.7322-97.91262-579.34-100.6922-569.4711"/>
<path transform="matrix(1,0,0,1,426,650)" stroke-width="2" stroke-linecap="square" stroke-linejoin="bevel" fill="none" stroke="#666a6b" d="M-102.5957-616H-193.9685"/>
<path transform="matrix(1,0,0,1,426,650)" stroke-width="2" stroke-linecap="butt" stroke-miterlimit="10" stroke-linejoin="miter" fill="none" stroke="#666a6b" d="M-203.5685-616H-193.9685M-193.9685-612.4-203.5685-616-193.9685-619.6"/>
<path transform="matrix(1,0,0,1,426,650)" stroke-width="2" stroke-linecap="square" stroke-linejoin="bevel" fill="none" stroke="#666a6b" d="M-13.03489-582.7047C-4.518342-572.0982 1.834862-559.1142 1.834862-543.9805 1.834862-527.9659-5.279446-512.1718-14.54318-498.3941"/>
<path transform="matrix(1,0,0,1,426,650)" stroke-width="2" stroke-linecap="butt" stroke-miterlimit="10" stroke-linejoin="miter" fill="none" stroke="#666a6b" d="M-20.2325-490.6584-14.54468-498.392M-11.64458-496.2591-20.2325-490.6584-17.44478-500.525"/>
<path transform="matrix(1,0,0,1,426,650)" stroke-width="2" stroke-linecap="square" stroke-linejoin="bevel" fill="none" stroke="#666a6b" d="M152.2824-420C139.4656-413.3775 122.3092-408.4416 99.64022-408.4416 67.35106-408.4416 30.99639-418.4558 1.485888-429.0942"/>
<path transform="matrix(1,0,0,1,426,650)" stroke-width="2" stroke-linecap="butt" stroke-miterlimit="10" stroke-linejoin="miter" fill="none" stroke="#666a6b" d="M-7.505358-432.4621 1.484657-429.0946M.221869-425.7234-7.505358-432.4621 2.747445-432.4659"/>
<path transform="matrix(1,0,0,1,426,650)" stroke-width="2" stroke-linecap="square" stroke-linejoin="bevel" fill="none" stroke="#666a6b" d="M157.8364-582C139.1382-562.3825 111.937-537.1574 77.65957-514.3617 50.372-496.2145 23.6736-482.981 1.364724-473.6127"/>
<path transform="matrix(1,0,0,1,426,650)" stroke-width="2" stroke-linecap="butt" stroke-miterlimit="10" stroke-linejoin="miter" fill="none" stroke="#666a6b" d="M-7.535768-470.0183 1.365783-473.6131M2.713823-470.275-7.535768-470.0183 .01774324-476.9512"/>
<path transform="matrix(1,0,0,-1,0,249)" d="M38.875 56.5726H116.875V74.5726H38.875Z" fill="#ffffff"/>
<use data-text="&#x8d44;" xlink:href="#font_2_6738" transform="matrix(13,0,0,-13,38.875,188.4274)" fill="#515556"/>
<use data-text="&#x4ea7;" xlink:href="#font_2_1342" transform="matrix(13,0,0,-13,51.875,188.4274)" fill="#515556"/>
<use data-text="&#x4fe1;" xlink:href="#font_2_1502" transform="matrix(13,0,0,-13,64.875,188.4274)" fill="#515556"/>
<use data-text="&#x606f;" xlink:href="#font_2_3059" transform="matrix(13,0,0,-13,77.875,188.4274)" fill="#515556"/>
<use data-text="&#x53d1;" xlink:href="#font_2_1870" transform="matrix(13,0,0,-13,90.875,188.4274)" fill="#515556"/>
<use data-text="&#x5e03;" xlink:href="#font_2_2802" transform="matrix(13,0,0,-13,103.875,188.4274)" fill="#515556"/>
<path transform="matrix(1,0,0,-1,0,249)" d="M249.3272 56.5726H301.3272V74.5726H249.3272Z" fill="#ffffff"/>
<use data-text="&#x5ba1;" xlink:href="#font_2_2605" transform="matrix(13,0,0,-13,249.3272,188.4274)" fill="#515556"/>
<use data-text="&#x6838;" xlink:href="#font_2_3792" transform="matrix(13,0,0,-13,262.3272,188.4274)" fill="#515556"/>
<use data-text="&#x901a;" xlink:href="#font_2_6999" transform="matrix(13,0,0,-13,275.3272,188.4274)" fill="#515556"/>
<use data-text="&#x8fc7;" xlink:href="#font_2_6950" transform="matrix(13,0,0,-13,288.3272,188.4274)" fill="#515556"/>
<path transform="matrix(1,0,0,-1,0,249)" d="M442.2022 56.5726H520.2022V74.5726H442.2022Z" fill="#ffffff"/>
<use data-text="&#x8d44;" xlink:href="#font_2_6738" transform="matrix(13,0,0,-13,442.20216,188.4274)" fill="#515556"/>
<use data-text="&#x4ea7;" xlink:href="#font_2_1342" transform="matrix(13,0,0,-13,455.20216,188.4274)" fill="#515556"/>
<use data-text="&#x7533;" xlink:href="#font_2_4777" transform="matrix(13,0,0,-13,468.20216,188.4274)" fill="#515556"/>
<use data-text="&#x8bf7;" xlink:href="#font_2_6615" transform="matrix(13,0,0,-13,481.20216,188.4274)" fill="#515556"/>
<use data-text="&#x8c03;" xlink:href="#font_2_6627" transform="matrix(13,0,0,-13,494.20216,188.4274)" fill="#515556"/>
<use data-text="&#x62e8;" xlink:href="#font_2_3295" transform="matrix(13,0,0,-13,507.20216,188.4274)" fill="#515556"/>
<path transform="matrix(1,0,0,-1,0,249)" d="M554.6775 125.0388H645.6775V143.0388H554.6775Z" fill="#ffffff"/>
<use data-text="&#x53d1;" xlink:href="#font_2_1870" transform="matrix(13,0,0,-13,554.6775,119.96118)" fill="#515556"/>
<use data-text="&#x5e03;" xlink:href="#font_2_2802" transform="matrix(13,0,0,-13,567.6775,119.96118)" fill="#515556"/>
<use data-text="&#x8005;" xlink:href="#font_2_5647" transform="matrix(13,0,0,-13,580.6775,119.96118)" fill="#515556"/>
<use data-text="&#x540c;" xlink:href="#font_2_1910" transform="matrix(13,0,0,-13,593.6775,119.96118)" fill="#515556"/>
<use data-text="&#x610f;" xlink:href="#font_2_3130" transform="matrix(13,0,0,-13,606.6775,119.96118)" fill="#515556"/>
<use data-text="&#x8c03;" xlink:href="#font_2_6627" transform="matrix(13,0,0,-13,619.6775,119.96118)" fill="#515556"/>
<use data-text="&#x62e8;" xlink:href="#font_2_3295" transform="matrix(13,0,0,-13,632.6775,119.96118)" fill="#515556"/>
<path transform="matrix(1,0,0,-1,0,249)" d="M678 218.5726H730V236.5726H678Z" fill="#ffffff"/>
<use data-text="&#x53cc;" xlink:href="#font_2_1868" transform="matrix(13,0,0,-13,678,26.42743)" fill="#515556"/>
<use data-text="&#x2f45;" xlink:href="#font_2_3548" transform="matrix(13,0,0,-13,691,26.42743)" fill="#515556"/>
<use data-text="&#x786e;" xlink:href="#font_2_5087" transform="matrix(13,0,0,-13,704,26.42743)" fill="#515556"/>
<use data-text="&#x8ba4;" xlink:href="#font_2_6538" transform="matrix(13,0,0,-13,717,26.42743)" fill="#515556"/>
<path transform="matrix(1,0,0,-1,0,249)" d="M769 125H821V143H769Z" fill="#ffffff"/>
<use data-text="&#x5ba1;" xlink:href="#font_2_2605" transform="matrix(13,0,0,-13,769,120)" fill="#515556"/>
<use data-text="&#x6838;" xlink:href="#font_2_3792" transform="matrix(13,0,0,-13,782,120)" fill="#515556"/>
<use data-text="&#x901a;" xlink:href="#font_2_6999" transform="matrix(13,0,0,-13,795,120)" fill="#515556"/>
<use data-text="&#x8fc7;" xlink:href="#font_2_6950" transform="matrix(13,0,0,-13,808,120)" fill="#515556"/>
<path transform="matrix(1,0,0,-1,0,249)" d="M113 125H249.5V143H113Z" fill="#ffffff"/>
<use data-text="&#x5ba1;" xlink:href="#font_2_2605" transform="matrix(13,0,0,-13,113,120)" fill="#515556"/>
<use data-text="&#x6838;" xlink:href="#font_2_3792" transform="matrix(13,0,0,-13,126,120)" fill="#515556"/>
<use data-text="&#x672a;" xlink:href="#font_2_3674" transform="matrix(13,0,0,-13,139,120)" fill="#515556"/>
<use data-text="&#x901a;" xlink:href="#font_2_6999" transform="matrix(13,0,0,-13,152,120)" fill="#515556"/>
<use data-text="&#x8fc7;" xlink:href="#font_2_6950" transform="matrix(13,0,0,-13,165,120)" fill="#515556"/>
<use data-text="/" xlink:href="#font_2_18" transform="matrix(13,0,0,-13,178,120)" fill="#515556"/>
<use data-text="&#x53d1;" xlink:href="#font_2_1870" transform="matrix(13,0,0,-13,184.5,120)" fill="#515556"/>
<use data-text="&#x5e03;" xlink:href="#font_2_2802" transform="matrix(13,0,0,-13,197.5,120)" fill="#515556"/>
<use data-text="&#x8005;" xlink:href="#font_2_5647" transform="matrix(13,0,0,-13,210.5,120)" fill="#515556"/>
<use data-text="&#x53d6;" xlink:href="#font_2_1872" transform="matrix(13,0,0,-13,223.5,120)" fill="#515556"/>
<use data-text="&#x6d88;" xlink:href="#font_2_4222" transform="matrix(13,0,0,-13,236.5,120)" fill="#515556"/>
<path transform="matrix(1,0,0,-1,0,249)" d="M264.975 124.9805H355.975V142.9805H264.975Z" fill="#ffffff"/>
<use data-text="&#x53d1;" xlink:href="#font_2_1870" transform="matrix(13,0,0,-13,264.975,120.01947)" fill="#515556"/>
<use data-text="&#x5e03;" xlink:href="#font_2_2802" transform="matrix(13,0,0,-13,277.975,120.01947)" fill="#515556"/>
<use data-text="&#x8005;" xlink:href="#font_2_5647" transform="matrix(13,0,0,-13,290.975,120.01947)" fill="#515556"/>
<use data-text="&#x7533;" xlink:href="#font_2_4777" transform="matrix(13,0,0,-13,303.975,120.01947)" fill="#515556"/>
<use data-text="&#x8bf7;" xlink:href="#font_2_6615" transform="matrix(13,0,0,-13,316.975,120.01947)" fill="#515556"/>
<use data-text="&#x53d6;" xlink:href="#font_2_1872" transform="matrix(13,0,0,-13,329.975,120.01947)" fill="#515556"/>
<use data-text="&#x6d88;" xlink:href="#font_2_4222" transform="matrix(13,0,0,-13,342.975,120.01947)" fill="#515556"/>
<path transform="matrix(1,0,0,-1,0,249)" d="M245.2679 218.5726H297.26789V236.5726H245.2679Z" fill="#ffffff"/>
<use data-text="&#x5ba1;" xlink:href="#font_2_2605" transform="matrix(13,0,0,-13,245.2679,26.42743)" fill="#515556"/>
<use data-text="&#x6838;" xlink:href="#font_2_3792" transform="matrix(13,0,0,-13,258.26789,26.42743)" fill="#515556"/>
<use data-text="&#x901a;" xlink:href="#font_2_6999" transform="matrix(13,0,0,-13,271.26789,26.42743)" fill="#515556"/>
<use data-text="&#x8fc7;" xlink:href="#font_2_6950" transform="matrix(13,0,0,-13,284.26789,26.42743)" fill="#515556"/>
<path transform="matrix(1,0,0,-1,0,249)" d="M450.6011 .842475H541.6011V18.842476H450.6011Z" fill="#ffffff"/>
<use data-text="&#x53d1;" xlink:href="#font_2_1870" transform="matrix(13,0,0,-13,450.60115,244.1575)" fill="#515556"/>
<use data-text="&#x5e03;" xlink:href="#font_2_2802" transform="matrix(13,0,0,-13,463.60115,244.1575)" fill="#515556"/>
<use data-text="&#x8005;" xlink:href="#font_2_5647" transform="matrix(13,0,0,-13,476.60115,244.1575)" fill="#515556"/>
<use data-text="&#x62d2;" xlink:href="#font_2_3279" transform="matrix(13,0,0,-13,489.60115,244.1575)" fill="#515556"/>
<use data-text="&#x7edd;" xlink:href="#font_2_5495" transform="matrix(13,0,0,-13,502.60115,244.1575)" fill="#515556"/>
<use data-text="&#x8c03;" xlink:href="#font_2_6627" transform="matrix(13,0,0,-13,515.60116,244.1575)" fill="#515556"/>
<use data-text="&#x62e8;" xlink:href="#font_2_3295" transform="matrix(13,0,0,-13,528.60116,244.1575)" fill="#515556"/>
<path transform="matrix(1,0,0,-1,0,249)" d="M394.5665 124.6898H459.5665V142.68979H394.5665Z" fill="#ffffff"/>
<use data-text="&#x5ba1;" xlink:href="#font_2_2605" transform="matrix(13,0,0,-13,394.5665,120.31018)" fill="#515556"/>
<use data-text="&#x6838;" xlink:href="#font_2_3792" transform="matrix(13,0,0,-13,407.5665,120.31018)" fill="#515556"/>
<use data-text="&#x4e0d;" xlink:href="#font_2_1255" transform="matrix(13,0,0,-13,420.5665,120.31018)" fill="#515556"/>
<use data-text="&#x901a;" xlink:href="#font_2_6999" transform="matrix(13,0,0,-13,433.5665,120.31018)" fill="#515556"/>
<use data-text="&#x8fc7;" xlink:href="#font_2_6950" transform="matrix(13,0,0,-13,446.5665,120.31018)" fill="#515556"/>
<path transform="matrix(1,0,0,-1,0,249)" d="M454.3858 106.1898H558.3858V124.1898H454.3858Z" fill="#ffffff"/>
<use data-text="&#x4efb;" xlink:href="#font_2_1393" transform="matrix(13,0,0,-13,454.38578,138.81021)" fill="#515556"/>
<use data-text="&#x610f;" xlink:href="#font_2_3130" transform="matrix(13,0,0,-13,467.38575,138.81021)" fill="#515556"/>
<use data-text="&#x2f00;" xlink:href="#font_2_1246" transform="matrix(13,0,0,-13,480.38575,138.81021)" fill="#515556"/>
<use data-text="&#x2f45;" xlink:href="#font_2_3548" transform="matrix(13,0,0,-13,493.38575,138.81021)" fill="#515556"/>
<use data-text="&#x53d6;" xlink:href="#font_2_1872" transform="matrix(13,0,0,-13,506.38575,138.81021)" fill="#515556"/>
<use data-text="&#x6d88;" xlink:href="#font_2_4222" transform="matrix(13,0,0,-13,519.38577,138.81021)" fill="#515556"/>
<use data-text="&#x8c03;" xlink:href="#font_2_6627" transform="matrix(13,0,0,-13,532.38577,138.81021)" fill="#515556"/>
<use data-text="&#x62e8;" xlink:href="#font_2_3295" transform="matrix(13,0,0,-13,545.38577,138.81021)" fill="#515556"/>
</g>
</svg>
